M48
; DRILL file {KiCad (5.1.9)-1} date 04/15/21 13:04:54
; FORMAT={-:-/ absolute / inch / decimal}
; #@! TF.CreationDate,2021-04-15T13:04:54-07:00
; #@! TF.GenerationSoftware,Kicad,Pcbnew,(5.1.9)-1
; #@! TF.FileFunction,Plated,1,2,PTH
FMAT,2
INCH
T1C0.0157
T2C0.0256
T3C0.0276
T4C0.0300
T5C0.0433
%
G90
G05
T1
X5.9Y-3.75
X6.2Y-3.75
T2
X5.9Y-4.1
X5.9Y-4.15
X5.9Y-4.2
X5.9Y-4.25
X5.9Y-4.3
T3
X5.8Y-3.45
X6.0Y-3.45
T4
X4.775Y-2.95
X4.775Y-3.05
X4.775Y-3.15
X4.775Y-3.25
X4.775Y-3.35
X4.775Y-3.45
X4.775Y-3.55
X4.775Y-3.65
X4.775Y-3.75
X4.775Y-3.85
X4.775Y-3.95
X4.775Y-4.05
X4.775Y-4.15
X4.775Y-4.25
X4.775Y-4.35
X5.7Y-2.95
X5.7Y-3.05
X5.7Y-3.15
X5.7Y-3.25
X5.7Y-3.35
X5.7Y-3.45
X5.7Y-3.55
X5.7Y-3.65
X5.7Y-3.75
X5.7Y-3.85
X5.7Y-3.95
X5.7Y-4.05
X5.7Y-4.15
X5.7Y-4.25
X5.7Y-4.35
T5
X5.9Y-2.85
X5.9Y-3.05
X6.0Y-2.85
X6.0Y-3.05
X6.1Y-2.85
X6.1Y-3.05
T0
M30
