%TF.GenerationSoftware,KiCad,Pcbnew,(5.1.9)-1*%
%TF.CreationDate,2021-04-23T18:31:25-07:00*%
%TF.ProjectId,LakeLevel,4c616b65-4c65-4766-956c-2e6b69636164,rev?*%
%TF.SameCoordinates,Original*%
%TF.FileFunction,Legend,Bot*%
%TF.FilePolarity,Positive*%
%FSLAX46Y46*%
G04 Gerber Fmt 4.6, Leading zero omitted, Abs format (unit mm)*
G04 Created by KiCad (PCBNEW (5.1.9)-1) date 2021-04-23 18:31:25*
%MOMM*%
%LPD*%
G01*
G04 APERTURE LIST*
%ADD10C,0.150000*%
%ADD11C,0.100000*%
G04 APERTURE END LIST*
D10*
X140898571Y-63835595D02*
X140898571Y-64168928D01*
X141422380Y-64311785D02*
X141422380Y-63835595D01*
X140422380Y-63835595D01*
X140422380Y-64311785D01*
X141374761Y-65168928D02*
X141422380Y-65073690D01*
X141422380Y-64883214D01*
X141374761Y-64787976D01*
X141327142Y-64740357D01*
X141231904Y-64692738D01*
X140946190Y-64692738D01*
X140850952Y-64740357D01*
X140803333Y-64787976D01*
X140755714Y-64883214D01*
X140755714Y-65073690D01*
X140803333Y-65168928D01*
X141422380Y-65597500D02*
X140422380Y-65597500D01*
X141422380Y-66026071D02*
X140898571Y-66026071D01*
X140803333Y-65978452D01*
X140755714Y-65883214D01*
X140755714Y-65740357D01*
X140803333Y-65645119D01*
X140850952Y-65597500D01*
X141422380Y-66645119D02*
X141374761Y-66549880D01*
X141327142Y-66502261D01*
X141231904Y-66454642D01*
X140946190Y-66454642D01*
X140850952Y-66502261D01*
X140803333Y-66549880D01*
X140755714Y-66645119D01*
X140755714Y-66787976D01*
X140803333Y-66883214D01*
X140850952Y-66930833D01*
X140946190Y-66978452D01*
X141231904Y-66978452D01*
X141327142Y-66930833D01*
X141374761Y-66883214D01*
X141422380Y-66787976D01*
X141422380Y-66645119D01*
X135342380Y-64311785D02*
X135342380Y-63835595D01*
X135818571Y-63787976D01*
X135770952Y-63835595D01*
X135723333Y-63930833D01*
X135723333Y-64168928D01*
X135770952Y-64264166D01*
X135818571Y-64311785D01*
X135913809Y-64359404D01*
X136151904Y-64359404D01*
X136247142Y-64311785D01*
X136294761Y-64264166D01*
X136342380Y-64168928D01*
X136342380Y-63930833D01*
X136294761Y-63835595D01*
X136247142Y-63787976D01*
X135342380Y-64645119D02*
X136342380Y-64978452D01*
X135342380Y-65311785D01*
X137882380Y-63692738D02*
X137882380Y-64264166D01*
X138882380Y-63978452D02*
X137882380Y-63978452D01*
X138882380Y-64597500D02*
X138215714Y-64597500D01*
X138406190Y-64597500D02*
X138310952Y-64645119D01*
X138263333Y-64692738D01*
X138215714Y-64787976D01*
X138215714Y-64883214D01*
X138882380Y-65216547D02*
X138215714Y-65216547D01*
X137882380Y-65216547D02*
X137930000Y-65168928D01*
X137977619Y-65216547D01*
X137930000Y-65264166D01*
X137882380Y-65216547D01*
X137977619Y-65216547D01*
X138215714Y-66121309D02*
X139025238Y-66121309D01*
X139120476Y-66073690D01*
X139168095Y-66026071D01*
X139215714Y-65930833D01*
X139215714Y-65787976D01*
X139168095Y-65692738D01*
X138834761Y-66121309D02*
X138882380Y-66026071D01*
X138882380Y-65835595D01*
X138834761Y-65740357D01*
X138787142Y-65692738D01*
X138691904Y-65645119D01*
X138406190Y-65645119D01*
X138310952Y-65692738D01*
X138263333Y-65740357D01*
X138215714Y-65835595D01*
X138215714Y-66026071D01*
X138263333Y-66121309D01*
X143010000Y-64359404D02*
X142962380Y-64264166D01*
X142962380Y-64121309D01*
X143010000Y-63978452D01*
X143105238Y-63883214D01*
X143200476Y-63835595D01*
X143390952Y-63787976D01*
X143533809Y-63787976D01*
X143724285Y-63835595D01*
X143819523Y-63883214D01*
X143914761Y-63978452D01*
X143962380Y-64121309D01*
X143962380Y-64216547D01*
X143914761Y-64359404D01*
X143867142Y-64407023D01*
X143533809Y-64407023D01*
X143533809Y-64216547D01*
X143962380Y-64835595D02*
X142962380Y-64835595D01*
X143962380Y-65407023D01*
X142962380Y-65407023D01*
X143962380Y-65883214D02*
X142962380Y-65883214D01*
X142962380Y-66121309D01*
X143010000Y-66264166D01*
X143105238Y-66359404D01*
X143200476Y-66407023D01*
X143390952Y-66454642D01*
X143533809Y-66454642D01*
X143724285Y-66407023D01*
X143819523Y-66359404D01*
X143914761Y-66264166D01*
X143962380Y-66121309D01*
X143962380Y-65883214D01*
D11*
X152739285Y-78983571D02*
X151989285Y-78983571D01*
X151989285Y-79162142D01*
X152025000Y-79269285D01*
X152096428Y-79340714D01*
X152167857Y-79376428D01*
X152310714Y-79412142D01*
X152417857Y-79412142D01*
X152560714Y-79376428D01*
X152632142Y-79340714D01*
X152703571Y-79269285D01*
X152739285Y-79162142D01*
X152739285Y-78983571D01*
X152810714Y-80233571D02*
X152775000Y-80162142D01*
X152703571Y-80090714D01*
X152596428Y-79983571D01*
X152560714Y-79912142D01*
X152560714Y-79840714D01*
X152739285Y-79876428D02*
X152703571Y-79805000D01*
X152632142Y-79733571D01*
X152489285Y-79697857D01*
X152239285Y-79697857D01*
X152096428Y-79733571D01*
X152025000Y-79805000D01*
X151989285Y-79876428D01*
X151989285Y-80019285D01*
X152025000Y-80090714D01*
X152096428Y-80162142D01*
X152239285Y-80197857D01*
X152489285Y-80197857D01*
X152632142Y-80162142D01*
X152703571Y-80090714D01*
X152739285Y-80019285D01*
X152739285Y-79876428D01*
X154529285Y-78876428D02*
X155279285Y-79126428D01*
X154529285Y-79376428D01*
X155279285Y-79626428D02*
X154529285Y-79626428D01*
X154529285Y-79805000D01*
X154565000Y-79912142D01*
X154636428Y-79983571D01*
X154707857Y-80019285D01*
X154850714Y-80055000D01*
X154957857Y-80055000D01*
X155100714Y-80019285D01*
X155172142Y-79983571D01*
X155243571Y-79912142D01*
X155279285Y-79805000D01*
X155279285Y-79626428D01*
X155279285Y-80376428D02*
X154529285Y-80376428D01*
X154529285Y-80555000D01*
X154565000Y-80662142D01*
X154636428Y-80733571D01*
X154707857Y-80769285D01*
X154850714Y-80805000D01*
X154957857Y-80805000D01*
X155100714Y-80769285D01*
X155172142Y-80733571D01*
X155243571Y-80662142D01*
X155279285Y-80555000D01*
X155279285Y-80376428D01*
X149485000Y-79376428D02*
X149449285Y-79305000D01*
X149449285Y-79197857D01*
X149485000Y-79090714D01*
X149556428Y-79019285D01*
X149627857Y-78983571D01*
X149770714Y-78947857D01*
X149877857Y-78947857D01*
X150020714Y-78983571D01*
X150092142Y-79019285D01*
X150163571Y-79090714D01*
X150199285Y-79197857D01*
X150199285Y-79269285D01*
X150163571Y-79376428D01*
X150127857Y-79412142D01*
X149877857Y-79412142D01*
X149877857Y-79269285D01*
X150199285Y-79733571D02*
X149449285Y-79733571D01*
X150199285Y-80162142D01*
X149449285Y-80162142D01*
X150199285Y-80519285D02*
X149449285Y-80519285D01*
X149449285Y-80697857D01*
X149485000Y-80805000D01*
X149556428Y-80876428D01*
X149627857Y-80912142D01*
X149770714Y-80947857D01*
X149877857Y-80947857D01*
X150020714Y-80912142D01*
X150092142Y-80876428D01*
X150163571Y-80805000D01*
X150199285Y-80697857D01*
X150199285Y-80519285D01*
M02*
