%TF.GenerationSoftware,KiCad,Pcbnew,(5.1.9)-1*%
%TF.CreationDate,2021-04-23T18:31:25-07:00*%
%TF.ProjectId,LakeLevel,4c616b65-4c65-4766-956c-2e6b69636164,rev?*%
%TF.SameCoordinates,Original*%
%TF.FileFunction,Soldermask,Bot*%
%TF.FilePolarity,Negative*%
%FSLAX46Y46*%
G04 Gerber Fmt 4.6, Leading zero omitted, Abs format (unit mm)*
G04 Created by KiCad (PCBNEW (5.1.9)-1) date 2021-04-23 18:31:25*
%MOMM*%
%LPD*%
G01*
G04 APERTURE LIST*
%ADD10C,3.301600*%
%ADD11C,1.625600*%
%ADD12O,1.501600X1.501600*%
%ADD13C,1.501600*%
%ADD14O,1.801600X1.801600*%
%ADD15C,1.751600*%
G04 APERTURE END LIST*
D10*
%TO.C,REF\u002A\u002A*%
X156210000Y-114300000D03*
%TD*%
D11*
%TO.C,U1*%
X144780000Y-74930000D03*
X144780000Y-77470000D03*
X144780000Y-80010000D03*
X144780000Y-82550000D03*
X144780000Y-85090000D03*
X144780000Y-87630000D03*
X144780000Y-90170000D03*
X144780000Y-92710000D03*
X144780000Y-95250000D03*
X144780000Y-97790000D03*
X144780000Y-100330000D03*
X144780000Y-102870000D03*
X144780000Y-105410000D03*
X144780000Y-107950000D03*
X144780000Y-110490000D03*
X121285000Y-110490000D03*
X121285000Y-107950000D03*
X121285000Y-105410000D03*
X121285000Y-102870000D03*
X121285000Y-100330000D03*
X121285000Y-97790000D03*
X121285000Y-95250000D03*
X121285000Y-92710000D03*
X121285000Y-90170000D03*
X121285000Y-87630000D03*
X121285000Y-85090000D03*
X121285000Y-82550000D03*
X121285000Y-80010000D03*
X121285000Y-77470000D03*
X121285000Y-74930000D03*
%TD*%
D12*
%TO.C,R1*%
X149860000Y-90170000D03*
D13*
X149860000Y-97790000D03*
%TD*%
D14*
%TO.C,J1*%
X146050000Y-62230000D03*
X143510000Y-62230000D03*
X140970000Y-62230000D03*
X138430000Y-62230000D03*
G36*
G01*
X136740000Y-63130800D02*
X135040000Y-63130800D01*
G75*
G02*
X134989200Y-63080000I0J50800D01*
G01*
X134989200Y-61380000D01*
G75*
G02*
X135040000Y-61329200I50800J0D01*
G01*
X136740000Y-61329200D01*
G75*
G02*
X136790800Y-61380000I0J-50800D01*
G01*
X136790800Y-63080000D01*
G75*
G02*
X136740000Y-63130800I-50800J0D01*
G01*
G37*
%TD*%
D10*
%TO.C,REF\u002A\u002A*%
X143510000Y-114300000D03*
%TD*%
%TO.C,REF\u002A\u002A*%
X122520000Y-71120000D03*
%TD*%
%TO.C,REF\u002A\u002A*%
X143510000Y-71120000D03*
%TD*%
%TO.C,REF\u002A\u002A*%
X122520000Y-114300000D03*
%TD*%
%TO.C,DS18B20*%
G36*
G01*
X148984200Y-73215000D02*
X148984200Y-71565000D01*
G75*
G02*
X149035000Y-71514200I50800J0D01*
G01*
X150685000Y-71514200D01*
G75*
G02*
X150735800Y-71565000I0J-50800D01*
G01*
X150735800Y-73215000D01*
G75*
G02*
X150685000Y-73265800I-50800J0D01*
G01*
X149035000Y-73265800D01*
G75*
G02*
X148984200Y-73215000I0J50800D01*
G01*
G37*
D15*
X152400000Y-72390000D03*
X154940000Y-72390000D03*
G36*
G01*
X148984200Y-78295000D02*
X148984200Y-76645000D01*
G75*
G02*
X149035000Y-76594200I50800J0D01*
G01*
X150685000Y-76594200D01*
G75*
G02*
X150735800Y-76645000I0J-50800D01*
G01*
X150735800Y-78295000D01*
G75*
G02*
X150685000Y-78345800I-50800J0D01*
G01*
X149035000Y-78345800D01*
G75*
G02*
X148984200Y-78295000I0J50800D01*
G01*
G37*
X152400000Y-77470000D03*
X154940000Y-77470000D03*
%TD*%
M02*
