%TF.GenerationSoftware,KiCad,Pcbnew,(5.1.9)-1*%
%TF.CreationDate,2021-04-23T18:31:25-07:00*%
%TF.ProjectId,LakeLevel,4c616b65-4c65-4766-956c-2e6b69636164,rev?*%
%TF.SameCoordinates,Original*%
%TF.FileFunction,Copper,L1,Top*%
%TF.FilePolarity,Positive*%
%FSLAX46Y46*%
G04 Gerber Fmt 4.6, Leading zero omitted, Abs format (unit mm)*
G04 Created by KiCad (PCBNEW (5.1.9)-1) date 2021-04-23 18:31:25*
%MOMM*%
%LPD*%
G01*
G04 APERTURE LIST*
%TA.AperFunction,ComponentPad*%
%ADD10C,1.524000*%
%TD*%
%TA.AperFunction,ComponentPad*%
%ADD11O,1.400000X1.400000*%
%TD*%
%TA.AperFunction,ComponentPad*%
%ADD12C,1.400000*%
%TD*%
%TA.AperFunction,ComponentPad*%
%ADD13O,1.700000X1.700000*%
%TD*%
%TA.AperFunction,ComponentPad*%
%ADD14R,1.700000X1.700000*%
%TD*%
%TA.AperFunction,ComponentPad*%
%ADD15R,1.650000X1.650000*%
%TD*%
%TA.AperFunction,ComponentPad*%
%ADD16C,1.650000*%
%TD*%
%TA.AperFunction,Conductor*%
%ADD17C,0.500000*%
%TD*%
%TA.AperFunction,Conductor*%
%ADD18C,0.254000*%
%TD*%
%TA.AperFunction,Conductor*%
%ADD19C,0.100000*%
%TD*%
G04 APERTURE END LIST*
D10*
%TO.P,U1,30*%
%TO.N,Net-(U1-Pad30)*%
X144780000Y-74930000D03*
%TO.P,U1,29*%
%TO.N,Net-(U1-Pad29)*%
X144780000Y-77470000D03*
%TO.P,U1,28*%
%TO.N,/DQ*%
X144780000Y-80010000D03*
%TO.P,U1,27*%
%TO.N,Net-(U1-Pad27)*%
X144780000Y-82550000D03*
%TO.P,U1,26*%
%TO.N,Net-(U1-Pad26)*%
X144780000Y-85090000D03*
%TO.P,U1,25*%
%TO.N,/VDD*%
X144780000Y-87630000D03*
%TO.P,U1,24*%
%TO.N,/GND*%
X144780000Y-90170000D03*
%TO.P,U1,23*%
%TO.N,/RX_Trig*%
X144780000Y-92710000D03*
%TO.P,U1,22*%
%TO.N,/TX_Echo*%
X144780000Y-95250000D03*
%TO.P,U1,21*%
%TO.N,Net-(U1-Pad21)*%
X144780000Y-97790000D03*
%TO.P,U1,20*%
%TO.N,Net-(U1-Pad20)*%
X144780000Y-100330000D03*
%TO.P,U1,19*%
%TO.N,Net-(U1-Pad19)*%
X144780000Y-102870000D03*
%TO.P,U1,18*%
%TO.N,Net-(U1-Pad18)*%
X144780000Y-105410000D03*
%TO.P,U1,17*%
%TO.N,/GND*%
X144780000Y-107950000D03*
%TO.P,U1,16*%
%TO.N,Net-(U1-Pad16)*%
X144780000Y-110490000D03*
%TO.P,U1,15*%
%TO.N,Net-(U1-Pad15)*%
X121285000Y-110490000D03*
%TO.P,U1,14*%
%TO.N,Net-(U1-Pad14)*%
X121285000Y-107950000D03*
%TO.P,U1,13*%
%TO.N,Net-(U1-Pad13)*%
X121285000Y-105410000D03*
%TO.P,U1,12*%
%TO.N,Net-(U1-Pad12)*%
X121285000Y-102870000D03*
%TO.P,U1,11*%
%TO.N,Net-(U1-Pad11)*%
X121285000Y-100330000D03*
%TO.P,U1,10*%
%TO.N,Net-(U1-Pad10)*%
X121285000Y-97790000D03*
%TO.P,U1,9*%
%TO.N,Net-(U1-Pad9)*%
X121285000Y-95250000D03*
%TO.P,U1,8*%
%TO.N,Net-(U1-Pad8)*%
X121285000Y-92710000D03*
%TO.P,U1,7*%
%TO.N,Net-(U1-Pad7)*%
X121285000Y-90170000D03*
%TO.P,U1,6*%
%TO.N,Net-(U1-Pad6)*%
X121285000Y-87630000D03*
%TO.P,U1,5*%
%TO.N,Net-(U1-Pad5)*%
X121285000Y-85090000D03*
%TO.P,U1,4*%
%TO.N,Net-(U1-Pad4)*%
X121285000Y-82550000D03*
%TO.P,U1,3*%
%TO.N,Net-(U1-Pad3)*%
X121285000Y-80010000D03*
%TO.P,U1,2*%
%TO.N,Net-(U1-Pad2)*%
X121285000Y-77470000D03*
%TO.P,U1,1*%
%TO.N,Net-(U1-Pad1)*%
X121285000Y-74930000D03*
%TD*%
D11*
%TO.P,R1,2*%
%TO.N,/DQ*%
X149860000Y-90170000D03*
D12*
%TO.P,R1,1*%
%TO.N,/VDD*%
X149860000Y-97790000D03*
%TD*%
D13*
%TO.P,J1,5*%
%TO.N,Net-(J1-Pad5)*%
X146050000Y-62230000D03*
%TO.P,J1,4*%
%TO.N,/GND*%
X143510000Y-62230000D03*
%TO.P,J1,3*%
%TO.N,/TX_Echo*%
X140970000Y-62230000D03*
%TO.P,J1,2*%
%TO.N,/RX_Trig*%
X138430000Y-62230000D03*
D14*
%TO.P,J1,1*%
%TO.N,/VDD*%
X135890000Y-62230000D03*
%TD*%
D15*
%TO.P,DS18B20,1_A*%
%TO.N,/GND*%
X149860000Y-72390000D03*
D16*
%TO.P,DS18B20,2_A*%
%TO.N,/DQ*%
X152400000Y-72390000D03*
%TO.P,DS18B20,3_A*%
%TO.N,/VDD*%
X154940000Y-72390000D03*
D15*
%TO.P,DS18B20,1_B*%
%TO.N,/GND*%
X149860000Y-77470000D03*
D16*
%TO.P,DS18B20,2_B*%
%TO.N,/DQ*%
X152400000Y-77470000D03*
%TO.P,DS18B20,3_B*%
%TO.N,/VDD*%
X154940000Y-77470000D03*
%TD*%
D17*
%TO.N,/DQ*%
X151130000Y-80010000D02*
X144780000Y-80010000D01*
X152400000Y-78740000D02*
X151130000Y-80010000D01*
X152400000Y-87630000D02*
X149860000Y-90170000D01*
X152400000Y-78740000D02*
X152400000Y-87630000D01*
X152400000Y-78740000D02*
X152400000Y-77470000D01*
%TO.N,/TX_Echo*%
X140970000Y-91440000D02*
X140970000Y-62230000D01*
X144780000Y-95250000D02*
X140970000Y-91440000D01*
%TD*%
D18*
%TO.N,/GND*%
X159310001Y-117400000D02*
X120090000Y-117400000D01*
X120090000Y-114079872D01*
X120285000Y-114079872D01*
X120285000Y-114520128D01*
X120370890Y-114951925D01*
X120539369Y-115358669D01*
X120783962Y-115724729D01*
X121095271Y-116036038D01*
X121461331Y-116280631D01*
X121868075Y-116449110D01*
X122299872Y-116535000D01*
X122740128Y-116535000D01*
X123171925Y-116449110D01*
X123578669Y-116280631D01*
X123944729Y-116036038D01*
X124256038Y-115724729D01*
X124500631Y-115358669D01*
X124669110Y-114951925D01*
X124755000Y-114520128D01*
X124755000Y-114079872D01*
X141275000Y-114079872D01*
X141275000Y-114520128D01*
X141360890Y-114951925D01*
X141529369Y-115358669D01*
X141773962Y-115724729D01*
X142085271Y-116036038D01*
X142451331Y-116280631D01*
X142858075Y-116449110D01*
X143289872Y-116535000D01*
X143730128Y-116535000D01*
X144161925Y-116449110D01*
X144568669Y-116280631D01*
X144934729Y-116036038D01*
X145246038Y-115724729D01*
X145490631Y-115358669D01*
X145659110Y-114951925D01*
X145745000Y-114520128D01*
X145745000Y-114079872D01*
X153975000Y-114079872D01*
X153975000Y-114520128D01*
X154060890Y-114951925D01*
X154229369Y-115358669D01*
X154473962Y-115724729D01*
X154785271Y-116036038D01*
X155151331Y-116280631D01*
X155558075Y-116449110D01*
X155989872Y-116535000D01*
X156430128Y-116535000D01*
X156861925Y-116449110D01*
X157268669Y-116280631D01*
X157634729Y-116036038D01*
X157946038Y-115724729D01*
X158190631Y-115358669D01*
X158359110Y-114951925D01*
X158445000Y-114520128D01*
X158445000Y-114079872D01*
X158359110Y-113648075D01*
X158190631Y-113241331D01*
X157946038Y-112875271D01*
X157634729Y-112563962D01*
X157268669Y-112319369D01*
X156861925Y-112150890D01*
X156430128Y-112065000D01*
X155989872Y-112065000D01*
X155558075Y-112150890D01*
X155151331Y-112319369D01*
X154785271Y-112563962D01*
X154473962Y-112875271D01*
X154229369Y-113241331D01*
X154060890Y-113648075D01*
X153975000Y-114079872D01*
X145745000Y-114079872D01*
X145659110Y-113648075D01*
X145490631Y-113241331D01*
X145246038Y-112875271D01*
X144934729Y-112563962D01*
X144568669Y-112319369D01*
X144161925Y-112150890D01*
X143730128Y-112065000D01*
X143289872Y-112065000D01*
X142858075Y-112150890D01*
X142451331Y-112319369D01*
X142085271Y-112563962D01*
X141773962Y-112875271D01*
X141529369Y-113241331D01*
X141360890Y-113648075D01*
X141275000Y-114079872D01*
X124755000Y-114079872D01*
X124669110Y-113648075D01*
X124500631Y-113241331D01*
X124256038Y-112875271D01*
X123944729Y-112563962D01*
X123578669Y-112319369D01*
X123171925Y-112150890D01*
X122740128Y-112065000D01*
X122299872Y-112065000D01*
X121868075Y-112150890D01*
X121461331Y-112319369D01*
X121095271Y-112563962D01*
X120783962Y-112875271D01*
X120539369Y-113241331D01*
X120370890Y-113648075D01*
X120285000Y-114079872D01*
X120090000Y-114079872D01*
X120090000Y-111216088D01*
X120199880Y-111380535D01*
X120394465Y-111575120D01*
X120623273Y-111728005D01*
X120877510Y-111833314D01*
X121147408Y-111887000D01*
X121422592Y-111887000D01*
X121692490Y-111833314D01*
X121946727Y-111728005D01*
X122175535Y-111575120D01*
X122370120Y-111380535D01*
X122523005Y-111151727D01*
X122628314Y-110897490D01*
X122682000Y-110627592D01*
X122682000Y-110352408D01*
X143383000Y-110352408D01*
X143383000Y-110627592D01*
X143436686Y-110897490D01*
X143541995Y-111151727D01*
X143694880Y-111380535D01*
X143889465Y-111575120D01*
X144118273Y-111728005D01*
X144372510Y-111833314D01*
X144642408Y-111887000D01*
X144917592Y-111887000D01*
X145187490Y-111833314D01*
X145441727Y-111728005D01*
X145670535Y-111575120D01*
X145865120Y-111380535D01*
X146018005Y-111151727D01*
X146123314Y-110897490D01*
X146177000Y-110627592D01*
X146177000Y-110352408D01*
X146123314Y-110082510D01*
X146018005Y-109828273D01*
X145865120Y-109599465D01*
X145670535Y-109404880D01*
X145441727Y-109251995D01*
X145370057Y-109222308D01*
X145383023Y-109217636D01*
X145498980Y-109155656D01*
X145565960Y-108915565D01*
X144780000Y-108129605D01*
X143994040Y-108915565D01*
X144061020Y-109155656D01*
X144196760Y-109219485D01*
X144118273Y-109251995D01*
X143889465Y-109404880D01*
X143694880Y-109599465D01*
X143541995Y-109828273D01*
X143436686Y-110082510D01*
X143383000Y-110352408D01*
X122682000Y-110352408D01*
X122628314Y-110082510D01*
X122523005Y-109828273D01*
X122370120Y-109599465D01*
X122175535Y-109404880D01*
X121946727Y-109251995D01*
X121869485Y-109220000D01*
X121946727Y-109188005D01*
X122175535Y-109035120D01*
X122370120Y-108840535D01*
X122523005Y-108611727D01*
X122628314Y-108357490D01*
X122682000Y-108087592D01*
X122682000Y-108022017D01*
X143378090Y-108022017D01*
X143419078Y-108294133D01*
X143512364Y-108553023D01*
X143574344Y-108668980D01*
X143814435Y-108735960D01*
X144600395Y-107950000D01*
X144959605Y-107950000D01*
X145745565Y-108735960D01*
X145985656Y-108668980D01*
X146102756Y-108419952D01*
X146169023Y-108152865D01*
X146181910Y-107877983D01*
X146140922Y-107605867D01*
X146047636Y-107346977D01*
X145985656Y-107231020D01*
X145745565Y-107164040D01*
X144959605Y-107950000D01*
X144600395Y-107950000D01*
X143814435Y-107164040D01*
X143574344Y-107231020D01*
X143457244Y-107480048D01*
X143390977Y-107747135D01*
X143378090Y-108022017D01*
X122682000Y-108022017D01*
X122682000Y-107812408D01*
X122628314Y-107542510D01*
X122523005Y-107288273D01*
X122370120Y-107059465D01*
X122175535Y-106864880D01*
X121946727Y-106711995D01*
X121869485Y-106680000D01*
X121946727Y-106648005D01*
X122175535Y-106495120D01*
X122370120Y-106300535D01*
X122523005Y-106071727D01*
X122628314Y-105817490D01*
X122682000Y-105547592D01*
X122682000Y-105272408D01*
X122628314Y-105002510D01*
X122523005Y-104748273D01*
X122370120Y-104519465D01*
X122175535Y-104324880D01*
X121946727Y-104171995D01*
X121869485Y-104140000D01*
X121946727Y-104108005D01*
X122175535Y-103955120D01*
X122370120Y-103760535D01*
X122523005Y-103531727D01*
X122628314Y-103277490D01*
X122682000Y-103007592D01*
X122682000Y-102732408D01*
X122628314Y-102462510D01*
X122523005Y-102208273D01*
X122370120Y-101979465D01*
X122175535Y-101784880D01*
X121946727Y-101631995D01*
X121869485Y-101600000D01*
X121946727Y-101568005D01*
X122175535Y-101415120D01*
X122370120Y-101220535D01*
X122523005Y-100991727D01*
X122628314Y-100737490D01*
X122682000Y-100467592D01*
X122682000Y-100192408D01*
X122628314Y-99922510D01*
X122523005Y-99668273D01*
X122370120Y-99439465D01*
X122175535Y-99244880D01*
X121946727Y-99091995D01*
X121869485Y-99060000D01*
X121946727Y-99028005D01*
X122175535Y-98875120D01*
X122370120Y-98680535D01*
X122523005Y-98451727D01*
X122628314Y-98197490D01*
X122682000Y-97927592D01*
X122682000Y-97652408D01*
X122628314Y-97382510D01*
X122523005Y-97128273D01*
X122370120Y-96899465D01*
X122175535Y-96704880D01*
X121946727Y-96551995D01*
X121869485Y-96520000D01*
X121946727Y-96488005D01*
X122175535Y-96335120D01*
X122370120Y-96140535D01*
X122523005Y-95911727D01*
X122628314Y-95657490D01*
X122682000Y-95387592D01*
X122682000Y-95112408D01*
X122628314Y-94842510D01*
X122523005Y-94588273D01*
X122370120Y-94359465D01*
X122175535Y-94164880D01*
X121946727Y-94011995D01*
X121869485Y-93980000D01*
X121946727Y-93948005D01*
X122175535Y-93795120D01*
X122370120Y-93600535D01*
X122523005Y-93371727D01*
X122628314Y-93117490D01*
X122682000Y-92847592D01*
X122682000Y-92572408D01*
X122628314Y-92302510D01*
X122523005Y-92048273D01*
X122370120Y-91819465D01*
X122175535Y-91624880D01*
X121946727Y-91471995D01*
X121869485Y-91440000D01*
X121946727Y-91408005D01*
X122175535Y-91255120D01*
X122370120Y-91060535D01*
X122523005Y-90831727D01*
X122628314Y-90577490D01*
X122682000Y-90307592D01*
X122682000Y-90032408D01*
X122628314Y-89762510D01*
X122523005Y-89508273D01*
X122370120Y-89279465D01*
X122175535Y-89084880D01*
X121946727Y-88931995D01*
X121869485Y-88900000D01*
X121946727Y-88868005D01*
X122175535Y-88715120D01*
X122370120Y-88520535D01*
X122523005Y-88291727D01*
X122628314Y-88037490D01*
X122682000Y-87767592D01*
X122682000Y-87492408D01*
X122628314Y-87222510D01*
X122523005Y-86968273D01*
X122370120Y-86739465D01*
X122175535Y-86544880D01*
X121946727Y-86391995D01*
X121869485Y-86360000D01*
X121946727Y-86328005D01*
X122175535Y-86175120D01*
X122370120Y-85980535D01*
X122523005Y-85751727D01*
X122628314Y-85497490D01*
X122682000Y-85227592D01*
X122682000Y-84952408D01*
X122628314Y-84682510D01*
X122523005Y-84428273D01*
X122370120Y-84199465D01*
X122175535Y-84004880D01*
X121946727Y-83851995D01*
X121869485Y-83820000D01*
X121946727Y-83788005D01*
X122175535Y-83635120D01*
X122370120Y-83440535D01*
X122523005Y-83211727D01*
X122628314Y-82957490D01*
X122682000Y-82687592D01*
X122682000Y-82412408D01*
X122628314Y-82142510D01*
X122523005Y-81888273D01*
X122370120Y-81659465D01*
X122175535Y-81464880D01*
X121946727Y-81311995D01*
X121869485Y-81280000D01*
X121946727Y-81248005D01*
X122175535Y-81095120D01*
X122370120Y-80900535D01*
X122523005Y-80671727D01*
X122628314Y-80417490D01*
X122682000Y-80147592D01*
X122682000Y-79872408D01*
X122628314Y-79602510D01*
X122523005Y-79348273D01*
X122370120Y-79119465D01*
X122175535Y-78924880D01*
X121946727Y-78771995D01*
X121869485Y-78740000D01*
X121946727Y-78708005D01*
X122175535Y-78555120D01*
X122370120Y-78360535D01*
X122523005Y-78131727D01*
X122628314Y-77877490D01*
X122682000Y-77607592D01*
X122682000Y-77332408D01*
X122628314Y-77062510D01*
X122523005Y-76808273D01*
X122370120Y-76579465D01*
X122175535Y-76384880D01*
X121946727Y-76231995D01*
X121869485Y-76200000D01*
X121946727Y-76168005D01*
X122175535Y-76015120D01*
X122370120Y-75820535D01*
X122523005Y-75591727D01*
X122628314Y-75337490D01*
X122682000Y-75067592D01*
X122682000Y-74792408D01*
X122628314Y-74522510D01*
X122523005Y-74268273D01*
X122370120Y-74039465D01*
X122175535Y-73844880D01*
X121946727Y-73691995D01*
X121692490Y-73586686D01*
X121422592Y-73533000D01*
X121147408Y-73533000D01*
X120877510Y-73586686D01*
X120623273Y-73691995D01*
X120394465Y-73844880D01*
X120199880Y-74039465D01*
X120090000Y-74203912D01*
X120090000Y-70899872D01*
X120285000Y-70899872D01*
X120285000Y-71340128D01*
X120370890Y-71771925D01*
X120539369Y-72178669D01*
X120783962Y-72544729D01*
X121095271Y-72856038D01*
X121461331Y-73100631D01*
X121868075Y-73269110D01*
X122299872Y-73355000D01*
X122740128Y-73355000D01*
X123171925Y-73269110D01*
X123578669Y-73100631D01*
X123944729Y-72856038D01*
X124256038Y-72544729D01*
X124500631Y-72178669D01*
X124669110Y-71771925D01*
X124755000Y-71340128D01*
X124755000Y-70899872D01*
X124669110Y-70468075D01*
X124500631Y-70061331D01*
X124256038Y-69695271D01*
X123944729Y-69383962D01*
X123578669Y-69139369D01*
X123171925Y-68970890D01*
X122740128Y-68885000D01*
X122299872Y-68885000D01*
X121868075Y-68970890D01*
X121461331Y-69139369D01*
X121095271Y-69383962D01*
X120783962Y-69695271D01*
X120539369Y-70061331D01*
X120370890Y-70468075D01*
X120285000Y-70899872D01*
X120090000Y-70899872D01*
X120090000Y-61380000D01*
X134401928Y-61380000D01*
X134401928Y-63080000D01*
X134414188Y-63204482D01*
X134450498Y-63324180D01*
X134509463Y-63434494D01*
X134588815Y-63531185D01*
X134685506Y-63610537D01*
X134795820Y-63669502D01*
X134915518Y-63705812D01*
X135040000Y-63718072D01*
X136740000Y-63718072D01*
X136864482Y-63705812D01*
X136984180Y-63669502D01*
X137094494Y-63610537D01*
X137191185Y-63531185D01*
X137270537Y-63434494D01*
X137329502Y-63324180D01*
X137351513Y-63251620D01*
X137483368Y-63383475D01*
X137726589Y-63545990D01*
X137996842Y-63657932D01*
X138283740Y-63715000D01*
X138576260Y-63715000D01*
X138863158Y-63657932D01*
X139133411Y-63545990D01*
X139376632Y-63383475D01*
X139583475Y-63176632D01*
X139700000Y-63002240D01*
X139816525Y-63176632D01*
X140023368Y-63383475D01*
X140085001Y-63424657D01*
X140085000Y-91396531D01*
X140080719Y-91440000D01*
X140085000Y-91483469D01*
X140085000Y-91483476D01*
X140097805Y-91613489D01*
X140148411Y-91780312D01*
X140230589Y-91934058D01*
X140341183Y-92068817D01*
X140374956Y-92096534D01*
X143384299Y-95105878D01*
X143383000Y-95112408D01*
X143383000Y-95387592D01*
X143436686Y-95657490D01*
X143541995Y-95911727D01*
X143694880Y-96140535D01*
X143889465Y-96335120D01*
X144118273Y-96488005D01*
X144195515Y-96520000D01*
X144118273Y-96551995D01*
X143889465Y-96704880D01*
X143694880Y-96899465D01*
X143541995Y-97128273D01*
X143436686Y-97382510D01*
X143383000Y-97652408D01*
X143383000Y-97927592D01*
X143436686Y-98197490D01*
X143541995Y-98451727D01*
X143694880Y-98680535D01*
X143889465Y-98875120D01*
X144118273Y-99028005D01*
X144195515Y-99060000D01*
X144118273Y-99091995D01*
X143889465Y-99244880D01*
X143694880Y-99439465D01*
X143541995Y-99668273D01*
X143436686Y-99922510D01*
X143383000Y-100192408D01*
X143383000Y-100467592D01*
X143436686Y-100737490D01*
X143541995Y-100991727D01*
X143694880Y-101220535D01*
X143889465Y-101415120D01*
X144118273Y-101568005D01*
X144195515Y-101600000D01*
X144118273Y-101631995D01*
X143889465Y-101784880D01*
X143694880Y-101979465D01*
X143541995Y-102208273D01*
X143436686Y-102462510D01*
X143383000Y-102732408D01*
X143383000Y-103007592D01*
X143436686Y-103277490D01*
X143541995Y-103531727D01*
X143694880Y-103760535D01*
X143889465Y-103955120D01*
X144118273Y-104108005D01*
X144195515Y-104140000D01*
X144118273Y-104171995D01*
X143889465Y-104324880D01*
X143694880Y-104519465D01*
X143541995Y-104748273D01*
X143436686Y-105002510D01*
X143383000Y-105272408D01*
X143383000Y-105547592D01*
X143436686Y-105817490D01*
X143541995Y-106071727D01*
X143694880Y-106300535D01*
X143889465Y-106495120D01*
X144118273Y-106648005D01*
X144189943Y-106677692D01*
X144176977Y-106682364D01*
X144061020Y-106744344D01*
X143994040Y-106984435D01*
X144780000Y-107770395D01*
X145565960Y-106984435D01*
X145498980Y-106744344D01*
X145363240Y-106680515D01*
X145441727Y-106648005D01*
X145670535Y-106495120D01*
X145865120Y-106300535D01*
X146018005Y-106071727D01*
X146123314Y-105817490D01*
X146177000Y-105547592D01*
X146177000Y-105272408D01*
X146123314Y-105002510D01*
X146018005Y-104748273D01*
X145865120Y-104519465D01*
X145670535Y-104324880D01*
X145441727Y-104171995D01*
X145364485Y-104140000D01*
X145441727Y-104108005D01*
X145670535Y-103955120D01*
X145865120Y-103760535D01*
X146018005Y-103531727D01*
X146123314Y-103277490D01*
X146177000Y-103007592D01*
X146177000Y-102732408D01*
X146123314Y-102462510D01*
X146018005Y-102208273D01*
X145865120Y-101979465D01*
X145670535Y-101784880D01*
X145441727Y-101631995D01*
X145364485Y-101600000D01*
X145441727Y-101568005D01*
X145670535Y-101415120D01*
X145865120Y-101220535D01*
X146018005Y-100991727D01*
X146123314Y-100737490D01*
X146177000Y-100467592D01*
X146177000Y-100192408D01*
X146123314Y-99922510D01*
X146018005Y-99668273D01*
X145865120Y-99439465D01*
X145670535Y-99244880D01*
X145441727Y-99091995D01*
X145364485Y-99060000D01*
X145441727Y-99028005D01*
X145670535Y-98875120D01*
X145865120Y-98680535D01*
X146018005Y-98451727D01*
X146123314Y-98197490D01*
X146177000Y-97927592D01*
X146177000Y-97658514D01*
X148525000Y-97658514D01*
X148525000Y-97921486D01*
X148576304Y-98179405D01*
X148676939Y-98422359D01*
X148823038Y-98641013D01*
X149008987Y-98826962D01*
X149227641Y-98973061D01*
X149470595Y-99073696D01*
X149728514Y-99125000D01*
X149991486Y-99125000D01*
X150249405Y-99073696D01*
X150492359Y-98973061D01*
X150711013Y-98826962D01*
X150896962Y-98641013D01*
X151043061Y-98422359D01*
X151143696Y-98179405D01*
X151195000Y-97921486D01*
X151195000Y-97658514D01*
X151143696Y-97400595D01*
X151043061Y-97157641D01*
X150896962Y-96938987D01*
X150711013Y-96753038D01*
X150492359Y-96606939D01*
X150249405Y-96506304D01*
X149991486Y-96455000D01*
X149728514Y-96455000D01*
X149470595Y-96506304D01*
X149227641Y-96606939D01*
X149008987Y-96753038D01*
X148823038Y-96938987D01*
X148676939Y-97157641D01*
X148576304Y-97400595D01*
X148525000Y-97658514D01*
X146177000Y-97658514D01*
X146177000Y-97652408D01*
X146123314Y-97382510D01*
X146018005Y-97128273D01*
X145865120Y-96899465D01*
X145670535Y-96704880D01*
X145441727Y-96551995D01*
X145364485Y-96520000D01*
X145441727Y-96488005D01*
X145670535Y-96335120D01*
X145865120Y-96140535D01*
X146018005Y-95911727D01*
X146123314Y-95657490D01*
X146177000Y-95387592D01*
X146177000Y-95112408D01*
X146123314Y-94842510D01*
X146018005Y-94588273D01*
X145865120Y-94359465D01*
X145670535Y-94164880D01*
X145441727Y-94011995D01*
X145364485Y-93980000D01*
X145441727Y-93948005D01*
X145670535Y-93795120D01*
X145865120Y-93600535D01*
X146018005Y-93371727D01*
X146123314Y-93117490D01*
X146177000Y-92847592D01*
X146177000Y-92572408D01*
X146123314Y-92302510D01*
X146018005Y-92048273D01*
X145865120Y-91819465D01*
X145670535Y-91624880D01*
X145441727Y-91471995D01*
X145370057Y-91442308D01*
X145383023Y-91437636D01*
X145498980Y-91375656D01*
X145565960Y-91135565D01*
X144780000Y-90349605D01*
X143994040Y-91135565D01*
X144061020Y-91375656D01*
X144196760Y-91439485D01*
X144118273Y-91471995D01*
X143889465Y-91624880D01*
X143694880Y-91819465D01*
X143541995Y-92048273D01*
X143436686Y-92302510D01*
X143383000Y-92572408D01*
X143383000Y-92601422D01*
X141855000Y-91073422D01*
X141855000Y-90242017D01*
X143378090Y-90242017D01*
X143419078Y-90514133D01*
X143512364Y-90773023D01*
X143574344Y-90888980D01*
X143814435Y-90955960D01*
X144600395Y-90170000D01*
X144959605Y-90170000D01*
X145745565Y-90955960D01*
X145985656Y-90888980D01*
X146102756Y-90639952D01*
X146169023Y-90372865D01*
X146181910Y-90097983D01*
X146140922Y-89825867D01*
X146047636Y-89566977D01*
X145985656Y-89451020D01*
X145745565Y-89384040D01*
X144959605Y-90170000D01*
X144600395Y-90170000D01*
X143814435Y-89384040D01*
X143574344Y-89451020D01*
X143457244Y-89700048D01*
X143390977Y-89967135D01*
X143378090Y-90242017D01*
X141855000Y-90242017D01*
X141855000Y-74792408D01*
X143383000Y-74792408D01*
X143383000Y-75067592D01*
X143436686Y-75337490D01*
X143541995Y-75591727D01*
X143694880Y-75820535D01*
X143889465Y-76015120D01*
X144118273Y-76168005D01*
X144195515Y-76200000D01*
X144118273Y-76231995D01*
X143889465Y-76384880D01*
X143694880Y-76579465D01*
X143541995Y-76808273D01*
X143436686Y-77062510D01*
X143383000Y-77332408D01*
X143383000Y-77607592D01*
X143436686Y-77877490D01*
X143541995Y-78131727D01*
X143694880Y-78360535D01*
X143889465Y-78555120D01*
X144118273Y-78708005D01*
X144195515Y-78740000D01*
X144118273Y-78771995D01*
X143889465Y-78924880D01*
X143694880Y-79119465D01*
X143541995Y-79348273D01*
X143436686Y-79602510D01*
X143383000Y-79872408D01*
X143383000Y-80147592D01*
X143436686Y-80417490D01*
X143541995Y-80671727D01*
X143694880Y-80900535D01*
X143889465Y-81095120D01*
X144118273Y-81248005D01*
X144195515Y-81280000D01*
X144118273Y-81311995D01*
X143889465Y-81464880D01*
X143694880Y-81659465D01*
X143541995Y-81888273D01*
X143436686Y-82142510D01*
X143383000Y-82412408D01*
X143383000Y-82687592D01*
X143436686Y-82957490D01*
X143541995Y-83211727D01*
X143694880Y-83440535D01*
X143889465Y-83635120D01*
X144118273Y-83788005D01*
X144195515Y-83820000D01*
X144118273Y-83851995D01*
X143889465Y-84004880D01*
X143694880Y-84199465D01*
X143541995Y-84428273D01*
X143436686Y-84682510D01*
X143383000Y-84952408D01*
X143383000Y-85227592D01*
X143436686Y-85497490D01*
X143541995Y-85751727D01*
X143694880Y-85980535D01*
X143889465Y-86175120D01*
X144118273Y-86328005D01*
X144195515Y-86360000D01*
X144118273Y-86391995D01*
X143889465Y-86544880D01*
X143694880Y-86739465D01*
X143541995Y-86968273D01*
X143436686Y-87222510D01*
X143383000Y-87492408D01*
X143383000Y-87767592D01*
X143436686Y-88037490D01*
X143541995Y-88291727D01*
X143694880Y-88520535D01*
X143889465Y-88715120D01*
X144118273Y-88868005D01*
X144189943Y-88897692D01*
X144176977Y-88902364D01*
X144061020Y-88964344D01*
X143994040Y-89204435D01*
X144780000Y-89990395D01*
X145565960Y-89204435D01*
X145498980Y-88964344D01*
X145363240Y-88900515D01*
X145441727Y-88868005D01*
X145670535Y-88715120D01*
X145865120Y-88520535D01*
X146018005Y-88291727D01*
X146123314Y-88037490D01*
X146177000Y-87767592D01*
X146177000Y-87492408D01*
X146123314Y-87222510D01*
X146018005Y-86968273D01*
X145865120Y-86739465D01*
X145670535Y-86544880D01*
X145441727Y-86391995D01*
X145364485Y-86360000D01*
X145441727Y-86328005D01*
X145670535Y-86175120D01*
X145865120Y-85980535D01*
X146018005Y-85751727D01*
X146123314Y-85497490D01*
X146177000Y-85227592D01*
X146177000Y-84952408D01*
X146123314Y-84682510D01*
X146018005Y-84428273D01*
X145865120Y-84199465D01*
X145670535Y-84004880D01*
X145441727Y-83851995D01*
X145364485Y-83820000D01*
X145441727Y-83788005D01*
X145670535Y-83635120D01*
X145865120Y-83440535D01*
X146018005Y-83211727D01*
X146123314Y-82957490D01*
X146177000Y-82687592D01*
X146177000Y-82412408D01*
X146123314Y-82142510D01*
X146018005Y-81888273D01*
X145865120Y-81659465D01*
X145670535Y-81464880D01*
X145441727Y-81311995D01*
X145364485Y-81280000D01*
X145441727Y-81248005D01*
X145670535Y-81095120D01*
X145865120Y-80900535D01*
X145868818Y-80895000D01*
X151086531Y-80895000D01*
X151130000Y-80899281D01*
X151173469Y-80895000D01*
X151173477Y-80895000D01*
X151303490Y-80882195D01*
X151470313Y-80831589D01*
X151515000Y-80807703D01*
X151515001Y-87263420D01*
X149943422Y-88835000D01*
X149728514Y-88835000D01*
X149470595Y-88886304D01*
X149227641Y-88986939D01*
X149008987Y-89133038D01*
X148823038Y-89318987D01*
X148676939Y-89537641D01*
X148576304Y-89780595D01*
X148525000Y-90038514D01*
X148525000Y-90301486D01*
X148576304Y-90559405D01*
X148676939Y-90802359D01*
X148823038Y-91021013D01*
X149008987Y-91206962D01*
X149227641Y-91353061D01*
X149470595Y-91453696D01*
X149728514Y-91505000D01*
X149991486Y-91505000D01*
X150249405Y-91453696D01*
X150492359Y-91353061D01*
X150711013Y-91206962D01*
X150896962Y-91021013D01*
X151043061Y-90802359D01*
X151143696Y-90559405D01*
X151195000Y-90301486D01*
X151195000Y-90086578D01*
X152995049Y-88286530D01*
X153028817Y-88258817D01*
X153139411Y-88124059D01*
X153221589Y-87970313D01*
X153272195Y-87803490D01*
X153285000Y-87673477D01*
X153285000Y-87673467D01*
X153289281Y-87630001D01*
X153285000Y-87586535D01*
X153285000Y-78783467D01*
X153289281Y-78740001D01*
X153285000Y-78696535D01*
X153285000Y-78634589D01*
X153330696Y-78604056D01*
X153534056Y-78400696D01*
X153670000Y-78197241D01*
X153805944Y-78400696D01*
X154009304Y-78604056D01*
X154248431Y-78763835D01*
X154514134Y-78873893D01*
X154796203Y-78930000D01*
X155083797Y-78930000D01*
X155365866Y-78873893D01*
X155631569Y-78763835D01*
X155870696Y-78604056D01*
X156074056Y-78400696D01*
X156233835Y-78161569D01*
X156343893Y-77895866D01*
X156400000Y-77613797D01*
X156400000Y-77326203D01*
X156343893Y-77044134D01*
X156233835Y-76778431D01*
X156074056Y-76539304D01*
X155870696Y-76335944D01*
X155631569Y-76176165D01*
X155365866Y-76066107D01*
X155083797Y-76010000D01*
X154796203Y-76010000D01*
X154514134Y-76066107D01*
X154248431Y-76176165D01*
X154009304Y-76335944D01*
X153805944Y-76539304D01*
X153670000Y-76742759D01*
X153534056Y-76539304D01*
X153330696Y-76335944D01*
X153091569Y-76176165D01*
X152825866Y-76066107D01*
X152543797Y-76010000D01*
X152256203Y-76010000D01*
X151974134Y-76066107D01*
X151708431Y-76176165D01*
X151469304Y-76335944D01*
X151304742Y-76500506D01*
X151274502Y-76400820D01*
X151215537Y-76290506D01*
X151136185Y-76193815D01*
X151039494Y-76114463D01*
X150929180Y-76055498D01*
X150809482Y-76019188D01*
X150685000Y-76006928D01*
X150145750Y-76010000D01*
X149987000Y-76168750D01*
X149987000Y-77343000D01*
X150007000Y-77343000D01*
X150007000Y-77597000D01*
X149987000Y-77597000D01*
X149987000Y-78771250D01*
X150145750Y-78930000D01*
X150685000Y-78933072D01*
X150809482Y-78920812D01*
X150929180Y-78884502D01*
X151039494Y-78825537D01*
X151136185Y-78746185D01*
X151215537Y-78649494D01*
X151274502Y-78539180D01*
X151304742Y-78439494D01*
X151376835Y-78511587D01*
X150763422Y-79125000D01*
X145868818Y-79125000D01*
X145865120Y-79119465D01*
X145670535Y-78924880D01*
X145441727Y-78771995D01*
X145364485Y-78740000D01*
X145441727Y-78708005D01*
X145670535Y-78555120D01*
X145865120Y-78360535D01*
X145908909Y-78295000D01*
X148396928Y-78295000D01*
X148409188Y-78419482D01*
X148445498Y-78539180D01*
X148504463Y-78649494D01*
X148583815Y-78746185D01*
X148680506Y-78825537D01*
X148790820Y-78884502D01*
X148910518Y-78920812D01*
X149035000Y-78933072D01*
X149574250Y-78930000D01*
X149733000Y-78771250D01*
X149733000Y-77597000D01*
X148558750Y-77597000D01*
X148400000Y-77755750D01*
X148396928Y-78295000D01*
X145908909Y-78295000D01*
X146018005Y-78131727D01*
X146123314Y-77877490D01*
X146177000Y-77607592D01*
X146177000Y-77332408D01*
X146123314Y-77062510D01*
X146018005Y-76808273D01*
X145908910Y-76645000D01*
X148396928Y-76645000D01*
X148400000Y-77184250D01*
X148558750Y-77343000D01*
X149733000Y-77343000D01*
X149733000Y-76168750D01*
X149574250Y-76010000D01*
X149035000Y-76006928D01*
X148910518Y-76019188D01*
X148790820Y-76055498D01*
X148680506Y-76114463D01*
X148583815Y-76193815D01*
X148504463Y-76290506D01*
X148445498Y-76400820D01*
X148409188Y-76520518D01*
X148396928Y-76645000D01*
X145908910Y-76645000D01*
X145865120Y-76579465D01*
X145670535Y-76384880D01*
X145441727Y-76231995D01*
X145364485Y-76200000D01*
X145441727Y-76168005D01*
X145670535Y-76015120D01*
X145865120Y-75820535D01*
X146018005Y-75591727D01*
X146123314Y-75337490D01*
X146177000Y-75067592D01*
X146177000Y-74792408D01*
X146123314Y-74522510D01*
X146018005Y-74268273D01*
X145865120Y-74039465D01*
X145670535Y-73844880D01*
X145441727Y-73691995D01*
X145187490Y-73586686D01*
X144917592Y-73533000D01*
X144642408Y-73533000D01*
X144372510Y-73586686D01*
X144118273Y-73691995D01*
X143889465Y-73844880D01*
X143694880Y-74039465D01*
X143541995Y-74268273D01*
X143436686Y-74522510D01*
X143383000Y-74792408D01*
X141855000Y-74792408D01*
X141855000Y-72625767D01*
X142085271Y-72856038D01*
X142451331Y-73100631D01*
X142858075Y-73269110D01*
X143289872Y-73355000D01*
X143730128Y-73355000D01*
X144161925Y-73269110D01*
X144292558Y-73215000D01*
X148396928Y-73215000D01*
X148409188Y-73339482D01*
X148445498Y-73459180D01*
X148504463Y-73569494D01*
X148583815Y-73666185D01*
X148680506Y-73745537D01*
X148790820Y-73804502D01*
X148910518Y-73840812D01*
X149035000Y-73853072D01*
X149574250Y-73850000D01*
X149733000Y-73691250D01*
X149733000Y-72517000D01*
X148558750Y-72517000D01*
X148400000Y-72675750D01*
X148396928Y-73215000D01*
X144292558Y-73215000D01*
X144568669Y-73100631D01*
X144934729Y-72856038D01*
X145246038Y-72544729D01*
X145490631Y-72178669D01*
X145659110Y-71771925D01*
X145700270Y-71565000D01*
X148396928Y-71565000D01*
X148400000Y-72104250D01*
X148558750Y-72263000D01*
X149733000Y-72263000D01*
X149733000Y-71088750D01*
X149987000Y-71088750D01*
X149987000Y-72263000D01*
X150007000Y-72263000D01*
X150007000Y-72517000D01*
X149987000Y-72517000D01*
X149987000Y-73691250D01*
X150145750Y-73850000D01*
X150685000Y-73853072D01*
X150809482Y-73840812D01*
X150929180Y-73804502D01*
X151039494Y-73745537D01*
X151136185Y-73666185D01*
X151215537Y-73569494D01*
X151274502Y-73459180D01*
X151304742Y-73359494D01*
X151469304Y-73524056D01*
X151708431Y-73683835D01*
X151974134Y-73793893D01*
X152256203Y-73850000D01*
X152543797Y-73850000D01*
X152825866Y-73793893D01*
X153091569Y-73683835D01*
X153330696Y-73524056D01*
X153534056Y-73320696D01*
X153670000Y-73117241D01*
X153805944Y-73320696D01*
X154009304Y-73524056D01*
X154248431Y-73683835D01*
X154514134Y-73793893D01*
X154796203Y-73850000D01*
X155083797Y-73850000D01*
X155365866Y-73793893D01*
X155631569Y-73683835D01*
X155870696Y-73524056D01*
X156074056Y-73320696D01*
X156233835Y-73081569D01*
X156343893Y-72815866D01*
X156400000Y-72533797D01*
X156400000Y-72246203D01*
X156343893Y-71964134D01*
X156233835Y-71698431D01*
X156074056Y-71459304D01*
X155870696Y-71255944D01*
X155631569Y-71096165D01*
X155365866Y-70986107D01*
X155083797Y-70930000D01*
X154796203Y-70930000D01*
X154514134Y-70986107D01*
X154248431Y-71096165D01*
X154009304Y-71255944D01*
X153805944Y-71459304D01*
X153670000Y-71662759D01*
X153534056Y-71459304D01*
X153330696Y-71255944D01*
X153091569Y-71096165D01*
X152825866Y-70986107D01*
X152543797Y-70930000D01*
X152256203Y-70930000D01*
X151974134Y-70986107D01*
X151708431Y-71096165D01*
X151469304Y-71255944D01*
X151304742Y-71420506D01*
X151274502Y-71320820D01*
X151215537Y-71210506D01*
X151136185Y-71113815D01*
X151039494Y-71034463D01*
X150929180Y-70975498D01*
X150809482Y-70939188D01*
X150685000Y-70926928D01*
X150145750Y-70930000D01*
X149987000Y-71088750D01*
X149733000Y-71088750D01*
X149574250Y-70930000D01*
X149035000Y-70926928D01*
X148910518Y-70939188D01*
X148790820Y-70975498D01*
X148680506Y-71034463D01*
X148583815Y-71113815D01*
X148504463Y-71210506D01*
X148445498Y-71320820D01*
X148409188Y-71440518D01*
X148396928Y-71565000D01*
X145700270Y-71565000D01*
X145745000Y-71340128D01*
X145745000Y-70899872D01*
X145659110Y-70468075D01*
X145490631Y-70061331D01*
X145246038Y-69695271D01*
X144934729Y-69383962D01*
X144568669Y-69139369D01*
X144161925Y-68970890D01*
X143730128Y-68885000D01*
X143289872Y-68885000D01*
X142858075Y-68970890D01*
X142451331Y-69139369D01*
X142085271Y-69383962D01*
X141855000Y-69614233D01*
X141855000Y-63424656D01*
X141916632Y-63383475D01*
X142123475Y-63176632D01*
X142245195Y-62994466D01*
X142314822Y-63111355D01*
X142509731Y-63327588D01*
X142743080Y-63501641D01*
X143005901Y-63626825D01*
X143153110Y-63671476D01*
X143383000Y-63550155D01*
X143383000Y-62357000D01*
X143363000Y-62357000D01*
X143363000Y-62103000D01*
X143383000Y-62103000D01*
X143383000Y-60909845D01*
X143637000Y-60909845D01*
X143637000Y-62103000D01*
X143657000Y-62103000D01*
X143657000Y-62357000D01*
X143637000Y-62357000D01*
X143637000Y-63550155D01*
X143866890Y-63671476D01*
X144014099Y-63626825D01*
X144276920Y-63501641D01*
X144510269Y-63327588D01*
X144705178Y-63111355D01*
X144774805Y-62994466D01*
X144896525Y-63176632D01*
X145103368Y-63383475D01*
X145346589Y-63545990D01*
X145616842Y-63657932D01*
X145903740Y-63715000D01*
X146196260Y-63715000D01*
X146483158Y-63657932D01*
X146753411Y-63545990D01*
X146996632Y-63383475D01*
X147203475Y-63176632D01*
X147365990Y-62933411D01*
X147477932Y-62663158D01*
X147535000Y-62376260D01*
X147535000Y-62083740D01*
X147477932Y-61796842D01*
X147365990Y-61526589D01*
X147203475Y-61283368D01*
X146996632Y-61076525D01*
X146753411Y-60914010D01*
X146483158Y-60802068D01*
X146196260Y-60745000D01*
X145903740Y-60745000D01*
X145616842Y-60802068D01*
X145346589Y-60914010D01*
X145103368Y-61076525D01*
X144896525Y-61283368D01*
X144774805Y-61465534D01*
X144705178Y-61348645D01*
X144510269Y-61132412D01*
X144276920Y-60958359D01*
X144014099Y-60833175D01*
X143866890Y-60788524D01*
X143637000Y-60909845D01*
X143383000Y-60909845D01*
X143153110Y-60788524D01*
X143005901Y-60833175D01*
X142743080Y-60958359D01*
X142509731Y-61132412D01*
X142314822Y-61348645D01*
X142245195Y-61465534D01*
X142123475Y-61283368D01*
X141916632Y-61076525D01*
X141673411Y-60914010D01*
X141403158Y-60802068D01*
X141116260Y-60745000D01*
X140823740Y-60745000D01*
X140536842Y-60802068D01*
X140266589Y-60914010D01*
X140023368Y-61076525D01*
X139816525Y-61283368D01*
X139700000Y-61457760D01*
X139583475Y-61283368D01*
X139376632Y-61076525D01*
X139133411Y-60914010D01*
X138863158Y-60802068D01*
X138576260Y-60745000D01*
X138283740Y-60745000D01*
X137996842Y-60802068D01*
X137726589Y-60914010D01*
X137483368Y-61076525D01*
X137351513Y-61208380D01*
X137329502Y-61135820D01*
X137270537Y-61025506D01*
X137191185Y-60928815D01*
X137094494Y-60849463D01*
X136984180Y-60790498D01*
X136864482Y-60754188D01*
X136740000Y-60741928D01*
X135040000Y-60741928D01*
X134915518Y-60754188D01*
X134795820Y-60790498D01*
X134685506Y-60849463D01*
X134588815Y-60928815D01*
X134509463Y-61025506D01*
X134450498Y-61135820D01*
X134414188Y-61255518D01*
X134401928Y-61380000D01*
X120090000Y-61380000D01*
X120090000Y-60400000D01*
X159310000Y-60400000D01*
X159310001Y-117400000D01*
%TA.AperFunction,Conductor*%
D19*
G36*
X159310001Y-117400000D02*
G01*
X120090000Y-117400000D01*
X120090000Y-114079872D01*
X120285000Y-114079872D01*
X120285000Y-114520128D01*
X120370890Y-114951925D01*
X120539369Y-115358669D01*
X120783962Y-115724729D01*
X121095271Y-116036038D01*
X121461331Y-116280631D01*
X121868075Y-116449110D01*
X122299872Y-116535000D01*
X122740128Y-116535000D01*
X123171925Y-116449110D01*
X123578669Y-116280631D01*
X123944729Y-116036038D01*
X124256038Y-115724729D01*
X124500631Y-115358669D01*
X124669110Y-114951925D01*
X124755000Y-114520128D01*
X124755000Y-114079872D01*
X141275000Y-114079872D01*
X141275000Y-114520128D01*
X141360890Y-114951925D01*
X141529369Y-115358669D01*
X141773962Y-115724729D01*
X142085271Y-116036038D01*
X142451331Y-116280631D01*
X142858075Y-116449110D01*
X143289872Y-116535000D01*
X143730128Y-116535000D01*
X144161925Y-116449110D01*
X144568669Y-116280631D01*
X144934729Y-116036038D01*
X145246038Y-115724729D01*
X145490631Y-115358669D01*
X145659110Y-114951925D01*
X145745000Y-114520128D01*
X145745000Y-114079872D01*
X153975000Y-114079872D01*
X153975000Y-114520128D01*
X154060890Y-114951925D01*
X154229369Y-115358669D01*
X154473962Y-115724729D01*
X154785271Y-116036038D01*
X155151331Y-116280631D01*
X155558075Y-116449110D01*
X155989872Y-116535000D01*
X156430128Y-116535000D01*
X156861925Y-116449110D01*
X157268669Y-116280631D01*
X157634729Y-116036038D01*
X157946038Y-115724729D01*
X158190631Y-115358669D01*
X158359110Y-114951925D01*
X158445000Y-114520128D01*
X158445000Y-114079872D01*
X158359110Y-113648075D01*
X158190631Y-113241331D01*
X157946038Y-112875271D01*
X157634729Y-112563962D01*
X157268669Y-112319369D01*
X156861925Y-112150890D01*
X156430128Y-112065000D01*
X155989872Y-112065000D01*
X155558075Y-112150890D01*
X155151331Y-112319369D01*
X154785271Y-112563962D01*
X154473962Y-112875271D01*
X154229369Y-113241331D01*
X154060890Y-113648075D01*
X153975000Y-114079872D01*
X145745000Y-114079872D01*
X145659110Y-113648075D01*
X145490631Y-113241331D01*
X145246038Y-112875271D01*
X144934729Y-112563962D01*
X144568669Y-112319369D01*
X144161925Y-112150890D01*
X143730128Y-112065000D01*
X143289872Y-112065000D01*
X142858075Y-112150890D01*
X142451331Y-112319369D01*
X142085271Y-112563962D01*
X141773962Y-112875271D01*
X141529369Y-113241331D01*
X141360890Y-113648075D01*
X141275000Y-114079872D01*
X124755000Y-114079872D01*
X124669110Y-113648075D01*
X124500631Y-113241331D01*
X124256038Y-112875271D01*
X123944729Y-112563962D01*
X123578669Y-112319369D01*
X123171925Y-112150890D01*
X122740128Y-112065000D01*
X122299872Y-112065000D01*
X121868075Y-112150890D01*
X121461331Y-112319369D01*
X121095271Y-112563962D01*
X120783962Y-112875271D01*
X120539369Y-113241331D01*
X120370890Y-113648075D01*
X120285000Y-114079872D01*
X120090000Y-114079872D01*
X120090000Y-111216088D01*
X120199880Y-111380535D01*
X120394465Y-111575120D01*
X120623273Y-111728005D01*
X120877510Y-111833314D01*
X121147408Y-111887000D01*
X121422592Y-111887000D01*
X121692490Y-111833314D01*
X121946727Y-111728005D01*
X122175535Y-111575120D01*
X122370120Y-111380535D01*
X122523005Y-111151727D01*
X122628314Y-110897490D01*
X122682000Y-110627592D01*
X122682000Y-110352408D01*
X143383000Y-110352408D01*
X143383000Y-110627592D01*
X143436686Y-110897490D01*
X143541995Y-111151727D01*
X143694880Y-111380535D01*
X143889465Y-111575120D01*
X144118273Y-111728005D01*
X144372510Y-111833314D01*
X144642408Y-111887000D01*
X144917592Y-111887000D01*
X145187490Y-111833314D01*
X145441727Y-111728005D01*
X145670535Y-111575120D01*
X145865120Y-111380535D01*
X146018005Y-111151727D01*
X146123314Y-110897490D01*
X146177000Y-110627592D01*
X146177000Y-110352408D01*
X146123314Y-110082510D01*
X146018005Y-109828273D01*
X145865120Y-109599465D01*
X145670535Y-109404880D01*
X145441727Y-109251995D01*
X145370057Y-109222308D01*
X145383023Y-109217636D01*
X145498980Y-109155656D01*
X145565960Y-108915565D01*
X144780000Y-108129605D01*
X143994040Y-108915565D01*
X144061020Y-109155656D01*
X144196760Y-109219485D01*
X144118273Y-109251995D01*
X143889465Y-109404880D01*
X143694880Y-109599465D01*
X143541995Y-109828273D01*
X143436686Y-110082510D01*
X143383000Y-110352408D01*
X122682000Y-110352408D01*
X122628314Y-110082510D01*
X122523005Y-109828273D01*
X122370120Y-109599465D01*
X122175535Y-109404880D01*
X121946727Y-109251995D01*
X121869485Y-109220000D01*
X121946727Y-109188005D01*
X122175535Y-109035120D01*
X122370120Y-108840535D01*
X122523005Y-108611727D01*
X122628314Y-108357490D01*
X122682000Y-108087592D01*
X122682000Y-108022017D01*
X143378090Y-108022017D01*
X143419078Y-108294133D01*
X143512364Y-108553023D01*
X143574344Y-108668980D01*
X143814435Y-108735960D01*
X144600395Y-107950000D01*
X144959605Y-107950000D01*
X145745565Y-108735960D01*
X145985656Y-108668980D01*
X146102756Y-108419952D01*
X146169023Y-108152865D01*
X146181910Y-107877983D01*
X146140922Y-107605867D01*
X146047636Y-107346977D01*
X145985656Y-107231020D01*
X145745565Y-107164040D01*
X144959605Y-107950000D01*
X144600395Y-107950000D01*
X143814435Y-107164040D01*
X143574344Y-107231020D01*
X143457244Y-107480048D01*
X143390977Y-107747135D01*
X143378090Y-108022017D01*
X122682000Y-108022017D01*
X122682000Y-107812408D01*
X122628314Y-107542510D01*
X122523005Y-107288273D01*
X122370120Y-107059465D01*
X122175535Y-106864880D01*
X121946727Y-106711995D01*
X121869485Y-106680000D01*
X121946727Y-106648005D01*
X122175535Y-106495120D01*
X122370120Y-106300535D01*
X122523005Y-106071727D01*
X122628314Y-105817490D01*
X122682000Y-105547592D01*
X122682000Y-105272408D01*
X122628314Y-105002510D01*
X122523005Y-104748273D01*
X122370120Y-104519465D01*
X122175535Y-104324880D01*
X121946727Y-104171995D01*
X121869485Y-104140000D01*
X121946727Y-104108005D01*
X122175535Y-103955120D01*
X122370120Y-103760535D01*
X122523005Y-103531727D01*
X122628314Y-103277490D01*
X122682000Y-103007592D01*
X122682000Y-102732408D01*
X122628314Y-102462510D01*
X122523005Y-102208273D01*
X122370120Y-101979465D01*
X122175535Y-101784880D01*
X121946727Y-101631995D01*
X121869485Y-101600000D01*
X121946727Y-101568005D01*
X122175535Y-101415120D01*
X122370120Y-101220535D01*
X122523005Y-100991727D01*
X122628314Y-100737490D01*
X122682000Y-100467592D01*
X122682000Y-100192408D01*
X122628314Y-99922510D01*
X122523005Y-99668273D01*
X122370120Y-99439465D01*
X122175535Y-99244880D01*
X121946727Y-99091995D01*
X121869485Y-99060000D01*
X121946727Y-99028005D01*
X122175535Y-98875120D01*
X122370120Y-98680535D01*
X122523005Y-98451727D01*
X122628314Y-98197490D01*
X122682000Y-97927592D01*
X122682000Y-97652408D01*
X122628314Y-97382510D01*
X122523005Y-97128273D01*
X122370120Y-96899465D01*
X122175535Y-96704880D01*
X121946727Y-96551995D01*
X121869485Y-96520000D01*
X121946727Y-96488005D01*
X122175535Y-96335120D01*
X122370120Y-96140535D01*
X122523005Y-95911727D01*
X122628314Y-95657490D01*
X122682000Y-95387592D01*
X122682000Y-95112408D01*
X122628314Y-94842510D01*
X122523005Y-94588273D01*
X122370120Y-94359465D01*
X122175535Y-94164880D01*
X121946727Y-94011995D01*
X121869485Y-93980000D01*
X121946727Y-93948005D01*
X122175535Y-93795120D01*
X122370120Y-93600535D01*
X122523005Y-93371727D01*
X122628314Y-93117490D01*
X122682000Y-92847592D01*
X122682000Y-92572408D01*
X122628314Y-92302510D01*
X122523005Y-92048273D01*
X122370120Y-91819465D01*
X122175535Y-91624880D01*
X121946727Y-91471995D01*
X121869485Y-91440000D01*
X121946727Y-91408005D01*
X122175535Y-91255120D01*
X122370120Y-91060535D01*
X122523005Y-90831727D01*
X122628314Y-90577490D01*
X122682000Y-90307592D01*
X122682000Y-90032408D01*
X122628314Y-89762510D01*
X122523005Y-89508273D01*
X122370120Y-89279465D01*
X122175535Y-89084880D01*
X121946727Y-88931995D01*
X121869485Y-88900000D01*
X121946727Y-88868005D01*
X122175535Y-88715120D01*
X122370120Y-88520535D01*
X122523005Y-88291727D01*
X122628314Y-88037490D01*
X122682000Y-87767592D01*
X122682000Y-87492408D01*
X122628314Y-87222510D01*
X122523005Y-86968273D01*
X122370120Y-86739465D01*
X122175535Y-86544880D01*
X121946727Y-86391995D01*
X121869485Y-86360000D01*
X121946727Y-86328005D01*
X122175535Y-86175120D01*
X122370120Y-85980535D01*
X122523005Y-85751727D01*
X122628314Y-85497490D01*
X122682000Y-85227592D01*
X122682000Y-84952408D01*
X122628314Y-84682510D01*
X122523005Y-84428273D01*
X122370120Y-84199465D01*
X122175535Y-84004880D01*
X121946727Y-83851995D01*
X121869485Y-83820000D01*
X121946727Y-83788005D01*
X122175535Y-83635120D01*
X122370120Y-83440535D01*
X122523005Y-83211727D01*
X122628314Y-82957490D01*
X122682000Y-82687592D01*
X122682000Y-82412408D01*
X122628314Y-82142510D01*
X122523005Y-81888273D01*
X122370120Y-81659465D01*
X122175535Y-81464880D01*
X121946727Y-81311995D01*
X121869485Y-81280000D01*
X121946727Y-81248005D01*
X122175535Y-81095120D01*
X122370120Y-80900535D01*
X122523005Y-80671727D01*
X122628314Y-80417490D01*
X122682000Y-80147592D01*
X122682000Y-79872408D01*
X122628314Y-79602510D01*
X122523005Y-79348273D01*
X122370120Y-79119465D01*
X122175535Y-78924880D01*
X121946727Y-78771995D01*
X121869485Y-78740000D01*
X121946727Y-78708005D01*
X122175535Y-78555120D01*
X122370120Y-78360535D01*
X122523005Y-78131727D01*
X122628314Y-77877490D01*
X122682000Y-77607592D01*
X122682000Y-77332408D01*
X122628314Y-77062510D01*
X122523005Y-76808273D01*
X122370120Y-76579465D01*
X122175535Y-76384880D01*
X121946727Y-76231995D01*
X121869485Y-76200000D01*
X121946727Y-76168005D01*
X122175535Y-76015120D01*
X122370120Y-75820535D01*
X122523005Y-75591727D01*
X122628314Y-75337490D01*
X122682000Y-75067592D01*
X122682000Y-74792408D01*
X122628314Y-74522510D01*
X122523005Y-74268273D01*
X122370120Y-74039465D01*
X122175535Y-73844880D01*
X121946727Y-73691995D01*
X121692490Y-73586686D01*
X121422592Y-73533000D01*
X121147408Y-73533000D01*
X120877510Y-73586686D01*
X120623273Y-73691995D01*
X120394465Y-73844880D01*
X120199880Y-74039465D01*
X120090000Y-74203912D01*
X120090000Y-70899872D01*
X120285000Y-70899872D01*
X120285000Y-71340128D01*
X120370890Y-71771925D01*
X120539369Y-72178669D01*
X120783962Y-72544729D01*
X121095271Y-72856038D01*
X121461331Y-73100631D01*
X121868075Y-73269110D01*
X122299872Y-73355000D01*
X122740128Y-73355000D01*
X123171925Y-73269110D01*
X123578669Y-73100631D01*
X123944729Y-72856038D01*
X124256038Y-72544729D01*
X124500631Y-72178669D01*
X124669110Y-71771925D01*
X124755000Y-71340128D01*
X124755000Y-70899872D01*
X124669110Y-70468075D01*
X124500631Y-70061331D01*
X124256038Y-69695271D01*
X123944729Y-69383962D01*
X123578669Y-69139369D01*
X123171925Y-68970890D01*
X122740128Y-68885000D01*
X122299872Y-68885000D01*
X121868075Y-68970890D01*
X121461331Y-69139369D01*
X121095271Y-69383962D01*
X120783962Y-69695271D01*
X120539369Y-70061331D01*
X120370890Y-70468075D01*
X120285000Y-70899872D01*
X120090000Y-70899872D01*
X120090000Y-61380000D01*
X134401928Y-61380000D01*
X134401928Y-63080000D01*
X134414188Y-63204482D01*
X134450498Y-63324180D01*
X134509463Y-63434494D01*
X134588815Y-63531185D01*
X134685506Y-63610537D01*
X134795820Y-63669502D01*
X134915518Y-63705812D01*
X135040000Y-63718072D01*
X136740000Y-63718072D01*
X136864482Y-63705812D01*
X136984180Y-63669502D01*
X137094494Y-63610537D01*
X137191185Y-63531185D01*
X137270537Y-63434494D01*
X137329502Y-63324180D01*
X137351513Y-63251620D01*
X137483368Y-63383475D01*
X137726589Y-63545990D01*
X137996842Y-63657932D01*
X138283740Y-63715000D01*
X138576260Y-63715000D01*
X138863158Y-63657932D01*
X139133411Y-63545990D01*
X139376632Y-63383475D01*
X139583475Y-63176632D01*
X139700000Y-63002240D01*
X139816525Y-63176632D01*
X140023368Y-63383475D01*
X140085001Y-63424657D01*
X140085000Y-91396531D01*
X140080719Y-91440000D01*
X140085000Y-91483469D01*
X140085000Y-91483476D01*
X140097805Y-91613489D01*
X140148411Y-91780312D01*
X140230589Y-91934058D01*
X140341183Y-92068817D01*
X140374956Y-92096534D01*
X143384299Y-95105878D01*
X143383000Y-95112408D01*
X143383000Y-95387592D01*
X143436686Y-95657490D01*
X143541995Y-95911727D01*
X143694880Y-96140535D01*
X143889465Y-96335120D01*
X144118273Y-96488005D01*
X144195515Y-96520000D01*
X144118273Y-96551995D01*
X143889465Y-96704880D01*
X143694880Y-96899465D01*
X143541995Y-97128273D01*
X143436686Y-97382510D01*
X143383000Y-97652408D01*
X143383000Y-97927592D01*
X143436686Y-98197490D01*
X143541995Y-98451727D01*
X143694880Y-98680535D01*
X143889465Y-98875120D01*
X144118273Y-99028005D01*
X144195515Y-99060000D01*
X144118273Y-99091995D01*
X143889465Y-99244880D01*
X143694880Y-99439465D01*
X143541995Y-99668273D01*
X143436686Y-99922510D01*
X143383000Y-100192408D01*
X143383000Y-100467592D01*
X143436686Y-100737490D01*
X143541995Y-100991727D01*
X143694880Y-101220535D01*
X143889465Y-101415120D01*
X144118273Y-101568005D01*
X144195515Y-101600000D01*
X144118273Y-101631995D01*
X143889465Y-101784880D01*
X143694880Y-101979465D01*
X143541995Y-102208273D01*
X143436686Y-102462510D01*
X143383000Y-102732408D01*
X143383000Y-103007592D01*
X143436686Y-103277490D01*
X143541995Y-103531727D01*
X143694880Y-103760535D01*
X143889465Y-103955120D01*
X144118273Y-104108005D01*
X144195515Y-104140000D01*
X144118273Y-104171995D01*
X143889465Y-104324880D01*
X143694880Y-104519465D01*
X143541995Y-104748273D01*
X143436686Y-105002510D01*
X143383000Y-105272408D01*
X143383000Y-105547592D01*
X143436686Y-105817490D01*
X143541995Y-106071727D01*
X143694880Y-106300535D01*
X143889465Y-106495120D01*
X144118273Y-106648005D01*
X144189943Y-106677692D01*
X144176977Y-106682364D01*
X144061020Y-106744344D01*
X143994040Y-106984435D01*
X144780000Y-107770395D01*
X145565960Y-106984435D01*
X145498980Y-106744344D01*
X145363240Y-106680515D01*
X145441727Y-106648005D01*
X145670535Y-106495120D01*
X145865120Y-106300535D01*
X146018005Y-106071727D01*
X146123314Y-105817490D01*
X146177000Y-105547592D01*
X146177000Y-105272408D01*
X146123314Y-105002510D01*
X146018005Y-104748273D01*
X145865120Y-104519465D01*
X145670535Y-104324880D01*
X145441727Y-104171995D01*
X145364485Y-104140000D01*
X145441727Y-104108005D01*
X145670535Y-103955120D01*
X145865120Y-103760535D01*
X146018005Y-103531727D01*
X146123314Y-103277490D01*
X146177000Y-103007592D01*
X146177000Y-102732408D01*
X146123314Y-102462510D01*
X146018005Y-102208273D01*
X145865120Y-101979465D01*
X145670535Y-101784880D01*
X145441727Y-101631995D01*
X145364485Y-101600000D01*
X145441727Y-101568005D01*
X145670535Y-101415120D01*
X145865120Y-101220535D01*
X146018005Y-100991727D01*
X146123314Y-100737490D01*
X146177000Y-100467592D01*
X146177000Y-100192408D01*
X146123314Y-99922510D01*
X146018005Y-99668273D01*
X145865120Y-99439465D01*
X145670535Y-99244880D01*
X145441727Y-99091995D01*
X145364485Y-99060000D01*
X145441727Y-99028005D01*
X145670535Y-98875120D01*
X145865120Y-98680535D01*
X146018005Y-98451727D01*
X146123314Y-98197490D01*
X146177000Y-97927592D01*
X146177000Y-97658514D01*
X148525000Y-97658514D01*
X148525000Y-97921486D01*
X148576304Y-98179405D01*
X148676939Y-98422359D01*
X148823038Y-98641013D01*
X149008987Y-98826962D01*
X149227641Y-98973061D01*
X149470595Y-99073696D01*
X149728514Y-99125000D01*
X149991486Y-99125000D01*
X150249405Y-99073696D01*
X150492359Y-98973061D01*
X150711013Y-98826962D01*
X150896962Y-98641013D01*
X151043061Y-98422359D01*
X151143696Y-98179405D01*
X151195000Y-97921486D01*
X151195000Y-97658514D01*
X151143696Y-97400595D01*
X151043061Y-97157641D01*
X150896962Y-96938987D01*
X150711013Y-96753038D01*
X150492359Y-96606939D01*
X150249405Y-96506304D01*
X149991486Y-96455000D01*
X149728514Y-96455000D01*
X149470595Y-96506304D01*
X149227641Y-96606939D01*
X149008987Y-96753038D01*
X148823038Y-96938987D01*
X148676939Y-97157641D01*
X148576304Y-97400595D01*
X148525000Y-97658514D01*
X146177000Y-97658514D01*
X146177000Y-97652408D01*
X146123314Y-97382510D01*
X146018005Y-97128273D01*
X145865120Y-96899465D01*
X145670535Y-96704880D01*
X145441727Y-96551995D01*
X145364485Y-96520000D01*
X145441727Y-96488005D01*
X145670535Y-96335120D01*
X145865120Y-96140535D01*
X146018005Y-95911727D01*
X146123314Y-95657490D01*
X146177000Y-95387592D01*
X146177000Y-95112408D01*
X146123314Y-94842510D01*
X146018005Y-94588273D01*
X145865120Y-94359465D01*
X145670535Y-94164880D01*
X145441727Y-94011995D01*
X145364485Y-93980000D01*
X145441727Y-93948005D01*
X145670535Y-93795120D01*
X145865120Y-93600535D01*
X146018005Y-93371727D01*
X146123314Y-93117490D01*
X146177000Y-92847592D01*
X146177000Y-92572408D01*
X146123314Y-92302510D01*
X146018005Y-92048273D01*
X145865120Y-91819465D01*
X145670535Y-91624880D01*
X145441727Y-91471995D01*
X145370057Y-91442308D01*
X145383023Y-91437636D01*
X145498980Y-91375656D01*
X145565960Y-91135565D01*
X144780000Y-90349605D01*
X143994040Y-91135565D01*
X144061020Y-91375656D01*
X144196760Y-91439485D01*
X144118273Y-91471995D01*
X143889465Y-91624880D01*
X143694880Y-91819465D01*
X143541995Y-92048273D01*
X143436686Y-92302510D01*
X143383000Y-92572408D01*
X143383000Y-92601422D01*
X141855000Y-91073422D01*
X141855000Y-90242017D01*
X143378090Y-90242017D01*
X143419078Y-90514133D01*
X143512364Y-90773023D01*
X143574344Y-90888980D01*
X143814435Y-90955960D01*
X144600395Y-90170000D01*
X144959605Y-90170000D01*
X145745565Y-90955960D01*
X145985656Y-90888980D01*
X146102756Y-90639952D01*
X146169023Y-90372865D01*
X146181910Y-90097983D01*
X146140922Y-89825867D01*
X146047636Y-89566977D01*
X145985656Y-89451020D01*
X145745565Y-89384040D01*
X144959605Y-90170000D01*
X144600395Y-90170000D01*
X143814435Y-89384040D01*
X143574344Y-89451020D01*
X143457244Y-89700048D01*
X143390977Y-89967135D01*
X143378090Y-90242017D01*
X141855000Y-90242017D01*
X141855000Y-74792408D01*
X143383000Y-74792408D01*
X143383000Y-75067592D01*
X143436686Y-75337490D01*
X143541995Y-75591727D01*
X143694880Y-75820535D01*
X143889465Y-76015120D01*
X144118273Y-76168005D01*
X144195515Y-76200000D01*
X144118273Y-76231995D01*
X143889465Y-76384880D01*
X143694880Y-76579465D01*
X143541995Y-76808273D01*
X143436686Y-77062510D01*
X143383000Y-77332408D01*
X143383000Y-77607592D01*
X143436686Y-77877490D01*
X143541995Y-78131727D01*
X143694880Y-78360535D01*
X143889465Y-78555120D01*
X144118273Y-78708005D01*
X144195515Y-78740000D01*
X144118273Y-78771995D01*
X143889465Y-78924880D01*
X143694880Y-79119465D01*
X143541995Y-79348273D01*
X143436686Y-79602510D01*
X143383000Y-79872408D01*
X143383000Y-80147592D01*
X143436686Y-80417490D01*
X143541995Y-80671727D01*
X143694880Y-80900535D01*
X143889465Y-81095120D01*
X144118273Y-81248005D01*
X144195515Y-81280000D01*
X144118273Y-81311995D01*
X143889465Y-81464880D01*
X143694880Y-81659465D01*
X143541995Y-81888273D01*
X143436686Y-82142510D01*
X143383000Y-82412408D01*
X143383000Y-82687592D01*
X143436686Y-82957490D01*
X143541995Y-83211727D01*
X143694880Y-83440535D01*
X143889465Y-83635120D01*
X144118273Y-83788005D01*
X144195515Y-83820000D01*
X144118273Y-83851995D01*
X143889465Y-84004880D01*
X143694880Y-84199465D01*
X143541995Y-84428273D01*
X143436686Y-84682510D01*
X143383000Y-84952408D01*
X143383000Y-85227592D01*
X143436686Y-85497490D01*
X143541995Y-85751727D01*
X143694880Y-85980535D01*
X143889465Y-86175120D01*
X144118273Y-86328005D01*
X144195515Y-86360000D01*
X144118273Y-86391995D01*
X143889465Y-86544880D01*
X143694880Y-86739465D01*
X143541995Y-86968273D01*
X143436686Y-87222510D01*
X143383000Y-87492408D01*
X143383000Y-87767592D01*
X143436686Y-88037490D01*
X143541995Y-88291727D01*
X143694880Y-88520535D01*
X143889465Y-88715120D01*
X144118273Y-88868005D01*
X144189943Y-88897692D01*
X144176977Y-88902364D01*
X144061020Y-88964344D01*
X143994040Y-89204435D01*
X144780000Y-89990395D01*
X145565960Y-89204435D01*
X145498980Y-88964344D01*
X145363240Y-88900515D01*
X145441727Y-88868005D01*
X145670535Y-88715120D01*
X145865120Y-88520535D01*
X146018005Y-88291727D01*
X146123314Y-88037490D01*
X146177000Y-87767592D01*
X146177000Y-87492408D01*
X146123314Y-87222510D01*
X146018005Y-86968273D01*
X145865120Y-86739465D01*
X145670535Y-86544880D01*
X145441727Y-86391995D01*
X145364485Y-86360000D01*
X145441727Y-86328005D01*
X145670535Y-86175120D01*
X145865120Y-85980535D01*
X146018005Y-85751727D01*
X146123314Y-85497490D01*
X146177000Y-85227592D01*
X146177000Y-84952408D01*
X146123314Y-84682510D01*
X146018005Y-84428273D01*
X145865120Y-84199465D01*
X145670535Y-84004880D01*
X145441727Y-83851995D01*
X145364485Y-83820000D01*
X145441727Y-83788005D01*
X145670535Y-83635120D01*
X145865120Y-83440535D01*
X146018005Y-83211727D01*
X146123314Y-82957490D01*
X146177000Y-82687592D01*
X146177000Y-82412408D01*
X146123314Y-82142510D01*
X146018005Y-81888273D01*
X145865120Y-81659465D01*
X145670535Y-81464880D01*
X145441727Y-81311995D01*
X145364485Y-81280000D01*
X145441727Y-81248005D01*
X145670535Y-81095120D01*
X145865120Y-80900535D01*
X145868818Y-80895000D01*
X151086531Y-80895000D01*
X151130000Y-80899281D01*
X151173469Y-80895000D01*
X151173477Y-80895000D01*
X151303490Y-80882195D01*
X151470313Y-80831589D01*
X151515000Y-80807703D01*
X151515001Y-87263420D01*
X149943422Y-88835000D01*
X149728514Y-88835000D01*
X149470595Y-88886304D01*
X149227641Y-88986939D01*
X149008987Y-89133038D01*
X148823038Y-89318987D01*
X148676939Y-89537641D01*
X148576304Y-89780595D01*
X148525000Y-90038514D01*
X148525000Y-90301486D01*
X148576304Y-90559405D01*
X148676939Y-90802359D01*
X148823038Y-91021013D01*
X149008987Y-91206962D01*
X149227641Y-91353061D01*
X149470595Y-91453696D01*
X149728514Y-91505000D01*
X149991486Y-91505000D01*
X150249405Y-91453696D01*
X150492359Y-91353061D01*
X150711013Y-91206962D01*
X150896962Y-91021013D01*
X151043061Y-90802359D01*
X151143696Y-90559405D01*
X151195000Y-90301486D01*
X151195000Y-90086578D01*
X152995049Y-88286530D01*
X153028817Y-88258817D01*
X153139411Y-88124059D01*
X153221589Y-87970313D01*
X153272195Y-87803490D01*
X153285000Y-87673477D01*
X153285000Y-87673467D01*
X153289281Y-87630001D01*
X153285000Y-87586535D01*
X153285000Y-78783467D01*
X153289281Y-78740001D01*
X153285000Y-78696535D01*
X153285000Y-78634589D01*
X153330696Y-78604056D01*
X153534056Y-78400696D01*
X153670000Y-78197241D01*
X153805944Y-78400696D01*
X154009304Y-78604056D01*
X154248431Y-78763835D01*
X154514134Y-78873893D01*
X154796203Y-78930000D01*
X155083797Y-78930000D01*
X155365866Y-78873893D01*
X155631569Y-78763835D01*
X155870696Y-78604056D01*
X156074056Y-78400696D01*
X156233835Y-78161569D01*
X156343893Y-77895866D01*
X156400000Y-77613797D01*
X156400000Y-77326203D01*
X156343893Y-77044134D01*
X156233835Y-76778431D01*
X156074056Y-76539304D01*
X155870696Y-76335944D01*
X155631569Y-76176165D01*
X155365866Y-76066107D01*
X155083797Y-76010000D01*
X154796203Y-76010000D01*
X154514134Y-76066107D01*
X154248431Y-76176165D01*
X154009304Y-76335944D01*
X153805944Y-76539304D01*
X153670000Y-76742759D01*
X153534056Y-76539304D01*
X153330696Y-76335944D01*
X153091569Y-76176165D01*
X152825866Y-76066107D01*
X152543797Y-76010000D01*
X152256203Y-76010000D01*
X151974134Y-76066107D01*
X151708431Y-76176165D01*
X151469304Y-76335944D01*
X151304742Y-76500506D01*
X151274502Y-76400820D01*
X151215537Y-76290506D01*
X151136185Y-76193815D01*
X151039494Y-76114463D01*
X150929180Y-76055498D01*
X150809482Y-76019188D01*
X150685000Y-76006928D01*
X150145750Y-76010000D01*
X149987000Y-76168750D01*
X149987000Y-77343000D01*
X150007000Y-77343000D01*
X150007000Y-77597000D01*
X149987000Y-77597000D01*
X149987000Y-78771250D01*
X150145750Y-78930000D01*
X150685000Y-78933072D01*
X150809482Y-78920812D01*
X150929180Y-78884502D01*
X151039494Y-78825537D01*
X151136185Y-78746185D01*
X151215537Y-78649494D01*
X151274502Y-78539180D01*
X151304742Y-78439494D01*
X151376835Y-78511587D01*
X150763422Y-79125000D01*
X145868818Y-79125000D01*
X145865120Y-79119465D01*
X145670535Y-78924880D01*
X145441727Y-78771995D01*
X145364485Y-78740000D01*
X145441727Y-78708005D01*
X145670535Y-78555120D01*
X145865120Y-78360535D01*
X145908909Y-78295000D01*
X148396928Y-78295000D01*
X148409188Y-78419482D01*
X148445498Y-78539180D01*
X148504463Y-78649494D01*
X148583815Y-78746185D01*
X148680506Y-78825537D01*
X148790820Y-78884502D01*
X148910518Y-78920812D01*
X149035000Y-78933072D01*
X149574250Y-78930000D01*
X149733000Y-78771250D01*
X149733000Y-77597000D01*
X148558750Y-77597000D01*
X148400000Y-77755750D01*
X148396928Y-78295000D01*
X145908909Y-78295000D01*
X146018005Y-78131727D01*
X146123314Y-77877490D01*
X146177000Y-77607592D01*
X146177000Y-77332408D01*
X146123314Y-77062510D01*
X146018005Y-76808273D01*
X145908910Y-76645000D01*
X148396928Y-76645000D01*
X148400000Y-77184250D01*
X148558750Y-77343000D01*
X149733000Y-77343000D01*
X149733000Y-76168750D01*
X149574250Y-76010000D01*
X149035000Y-76006928D01*
X148910518Y-76019188D01*
X148790820Y-76055498D01*
X148680506Y-76114463D01*
X148583815Y-76193815D01*
X148504463Y-76290506D01*
X148445498Y-76400820D01*
X148409188Y-76520518D01*
X148396928Y-76645000D01*
X145908910Y-76645000D01*
X145865120Y-76579465D01*
X145670535Y-76384880D01*
X145441727Y-76231995D01*
X145364485Y-76200000D01*
X145441727Y-76168005D01*
X145670535Y-76015120D01*
X145865120Y-75820535D01*
X146018005Y-75591727D01*
X146123314Y-75337490D01*
X146177000Y-75067592D01*
X146177000Y-74792408D01*
X146123314Y-74522510D01*
X146018005Y-74268273D01*
X145865120Y-74039465D01*
X145670535Y-73844880D01*
X145441727Y-73691995D01*
X145187490Y-73586686D01*
X144917592Y-73533000D01*
X144642408Y-73533000D01*
X144372510Y-73586686D01*
X144118273Y-73691995D01*
X143889465Y-73844880D01*
X143694880Y-74039465D01*
X143541995Y-74268273D01*
X143436686Y-74522510D01*
X143383000Y-74792408D01*
X141855000Y-74792408D01*
X141855000Y-72625767D01*
X142085271Y-72856038D01*
X142451331Y-73100631D01*
X142858075Y-73269110D01*
X143289872Y-73355000D01*
X143730128Y-73355000D01*
X144161925Y-73269110D01*
X144292558Y-73215000D01*
X148396928Y-73215000D01*
X148409188Y-73339482D01*
X148445498Y-73459180D01*
X148504463Y-73569494D01*
X148583815Y-73666185D01*
X148680506Y-73745537D01*
X148790820Y-73804502D01*
X148910518Y-73840812D01*
X149035000Y-73853072D01*
X149574250Y-73850000D01*
X149733000Y-73691250D01*
X149733000Y-72517000D01*
X148558750Y-72517000D01*
X148400000Y-72675750D01*
X148396928Y-73215000D01*
X144292558Y-73215000D01*
X144568669Y-73100631D01*
X144934729Y-72856038D01*
X145246038Y-72544729D01*
X145490631Y-72178669D01*
X145659110Y-71771925D01*
X145700270Y-71565000D01*
X148396928Y-71565000D01*
X148400000Y-72104250D01*
X148558750Y-72263000D01*
X149733000Y-72263000D01*
X149733000Y-71088750D01*
X149987000Y-71088750D01*
X149987000Y-72263000D01*
X150007000Y-72263000D01*
X150007000Y-72517000D01*
X149987000Y-72517000D01*
X149987000Y-73691250D01*
X150145750Y-73850000D01*
X150685000Y-73853072D01*
X150809482Y-73840812D01*
X150929180Y-73804502D01*
X151039494Y-73745537D01*
X151136185Y-73666185D01*
X151215537Y-73569494D01*
X151274502Y-73459180D01*
X151304742Y-73359494D01*
X151469304Y-73524056D01*
X151708431Y-73683835D01*
X151974134Y-73793893D01*
X152256203Y-73850000D01*
X152543797Y-73850000D01*
X152825866Y-73793893D01*
X153091569Y-73683835D01*
X153330696Y-73524056D01*
X153534056Y-73320696D01*
X153670000Y-73117241D01*
X153805944Y-73320696D01*
X154009304Y-73524056D01*
X154248431Y-73683835D01*
X154514134Y-73793893D01*
X154796203Y-73850000D01*
X155083797Y-73850000D01*
X155365866Y-73793893D01*
X155631569Y-73683835D01*
X155870696Y-73524056D01*
X156074056Y-73320696D01*
X156233835Y-73081569D01*
X156343893Y-72815866D01*
X156400000Y-72533797D01*
X156400000Y-72246203D01*
X156343893Y-71964134D01*
X156233835Y-71698431D01*
X156074056Y-71459304D01*
X155870696Y-71255944D01*
X155631569Y-71096165D01*
X155365866Y-70986107D01*
X155083797Y-70930000D01*
X154796203Y-70930000D01*
X154514134Y-70986107D01*
X154248431Y-71096165D01*
X154009304Y-71255944D01*
X153805944Y-71459304D01*
X153670000Y-71662759D01*
X153534056Y-71459304D01*
X153330696Y-71255944D01*
X153091569Y-71096165D01*
X152825866Y-70986107D01*
X152543797Y-70930000D01*
X152256203Y-70930000D01*
X151974134Y-70986107D01*
X151708431Y-71096165D01*
X151469304Y-71255944D01*
X151304742Y-71420506D01*
X151274502Y-71320820D01*
X151215537Y-71210506D01*
X151136185Y-71113815D01*
X151039494Y-71034463D01*
X150929180Y-70975498D01*
X150809482Y-70939188D01*
X150685000Y-70926928D01*
X150145750Y-70930000D01*
X149987000Y-71088750D01*
X149733000Y-71088750D01*
X149574250Y-70930000D01*
X149035000Y-70926928D01*
X148910518Y-70939188D01*
X148790820Y-70975498D01*
X148680506Y-71034463D01*
X148583815Y-71113815D01*
X148504463Y-71210506D01*
X148445498Y-71320820D01*
X148409188Y-71440518D01*
X148396928Y-71565000D01*
X145700270Y-71565000D01*
X145745000Y-71340128D01*
X145745000Y-70899872D01*
X145659110Y-70468075D01*
X145490631Y-70061331D01*
X145246038Y-69695271D01*
X144934729Y-69383962D01*
X144568669Y-69139369D01*
X144161925Y-68970890D01*
X143730128Y-68885000D01*
X143289872Y-68885000D01*
X142858075Y-68970890D01*
X142451331Y-69139369D01*
X142085271Y-69383962D01*
X141855000Y-69614233D01*
X141855000Y-63424656D01*
X141916632Y-63383475D01*
X142123475Y-63176632D01*
X142245195Y-62994466D01*
X142314822Y-63111355D01*
X142509731Y-63327588D01*
X142743080Y-63501641D01*
X143005901Y-63626825D01*
X143153110Y-63671476D01*
X143383000Y-63550155D01*
X143383000Y-62357000D01*
X143363000Y-62357000D01*
X143363000Y-62103000D01*
X143383000Y-62103000D01*
X143383000Y-60909845D01*
X143637000Y-60909845D01*
X143637000Y-62103000D01*
X143657000Y-62103000D01*
X143657000Y-62357000D01*
X143637000Y-62357000D01*
X143637000Y-63550155D01*
X143866890Y-63671476D01*
X144014099Y-63626825D01*
X144276920Y-63501641D01*
X144510269Y-63327588D01*
X144705178Y-63111355D01*
X144774805Y-62994466D01*
X144896525Y-63176632D01*
X145103368Y-63383475D01*
X145346589Y-63545990D01*
X145616842Y-63657932D01*
X145903740Y-63715000D01*
X146196260Y-63715000D01*
X146483158Y-63657932D01*
X146753411Y-63545990D01*
X146996632Y-63383475D01*
X147203475Y-63176632D01*
X147365990Y-62933411D01*
X147477932Y-62663158D01*
X147535000Y-62376260D01*
X147535000Y-62083740D01*
X147477932Y-61796842D01*
X147365990Y-61526589D01*
X147203475Y-61283368D01*
X146996632Y-61076525D01*
X146753411Y-60914010D01*
X146483158Y-60802068D01*
X146196260Y-60745000D01*
X145903740Y-60745000D01*
X145616842Y-60802068D01*
X145346589Y-60914010D01*
X145103368Y-61076525D01*
X144896525Y-61283368D01*
X144774805Y-61465534D01*
X144705178Y-61348645D01*
X144510269Y-61132412D01*
X144276920Y-60958359D01*
X144014099Y-60833175D01*
X143866890Y-60788524D01*
X143637000Y-60909845D01*
X143383000Y-60909845D01*
X143153110Y-60788524D01*
X143005901Y-60833175D01*
X142743080Y-60958359D01*
X142509731Y-61132412D01*
X142314822Y-61348645D01*
X142245195Y-61465534D01*
X142123475Y-61283368D01*
X141916632Y-61076525D01*
X141673411Y-60914010D01*
X141403158Y-60802068D01*
X141116260Y-60745000D01*
X140823740Y-60745000D01*
X140536842Y-60802068D01*
X140266589Y-60914010D01*
X140023368Y-61076525D01*
X139816525Y-61283368D01*
X139700000Y-61457760D01*
X139583475Y-61283368D01*
X139376632Y-61076525D01*
X139133411Y-60914010D01*
X138863158Y-60802068D01*
X138576260Y-60745000D01*
X138283740Y-60745000D01*
X137996842Y-60802068D01*
X137726589Y-60914010D01*
X137483368Y-61076525D01*
X137351513Y-61208380D01*
X137329502Y-61135820D01*
X137270537Y-61025506D01*
X137191185Y-60928815D01*
X137094494Y-60849463D01*
X136984180Y-60790498D01*
X136864482Y-60754188D01*
X136740000Y-60741928D01*
X135040000Y-60741928D01*
X134915518Y-60754188D01*
X134795820Y-60790498D01*
X134685506Y-60849463D01*
X134588815Y-60928815D01*
X134509463Y-61025506D01*
X134450498Y-61135820D01*
X134414188Y-61255518D01*
X134401928Y-61380000D01*
X120090000Y-61380000D01*
X120090000Y-60400000D01*
X159310000Y-60400000D01*
X159310001Y-117400000D01*
G37*
%TD.AperFunction*%
%TD*%
M02*
