M48
; DRILL file {KiCad (5.1.9)-1} date 04/23/21 18:31:27
; FORMAT={-:-/ absolute / inch / decimal}
; #@! TF.CreationDate,2021-04-23T18:31:27-07:00
; #@! TF.GenerationSoftware,Kicad,Pcbnew,(5.1.9)-1
; #@! TF.FileFunction,Plated,1,2,PTH
FMAT,2
INCH
T1C0.0276
T2C0.0300
T3C0.0394
T4C0.0433
%
G90
G05
T1
X5.9Y-3.55
X5.9Y-3.85
T2
X4.775Y-2.95
X4.775Y-3.05
X4.775Y-3.15
X4.775Y-3.25
X4.775Y-3.35
X4.775Y-3.45
X4.775Y-3.55
X4.775Y-3.65
X4.775Y-3.75
X4.775Y-3.85
X4.775Y-3.95
X4.775Y-4.05
X4.775Y-4.15
X4.775Y-4.25
X4.775Y-4.35
X5.7Y-2.95
X5.7Y-3.05
X5.7Y-3.15
X5.7Y-3.25
X5.7Y-3.35
X5.7Y-3.45
X5.7Y-3.55
X5.7Y-3.65
X5.7Y-3.75
X5.7Y-3.85
X5.7Y-3.95
X5.7Y-4.05
X5.7Y-4.15
X5.7Y-4.25
X5.7Y-4.35
T3
X5.35Y-2.45
X5.45Y-2.45
X5.55Y-2.45
X5.65Y-2.45
X5.75Y-2.45
T4
X5.9Y-2.85
X5.9Y-3.05
X6.0Y-2.85
X6.0Y-3.05
X6.1Y-2.85
X6.1Y-3.05
T0
M30
