%TF.GenerationSoftware,KiCad,Pcbnew,(5.1.9)-1*%
%TF.CreationDate,2021-04-23T18:31:25-07:00*%
%TF.ProjectId,LakeLevel,4c616b65-4c65-4766-956c-2e6b69636164,rev?*%
%TF.SameCoordinates,Original*%
%TF.FileFunction,Legend,Top*%
%TF.FilePolarity,Positive*%
%FSLAX46Y46*%
G04 Gerber Fmt 4.6, Leading zero omitted, Abs format (unit mm)*
G04 Created by KiCad (PCBNEW (5.1.9)-1) date 2021-04-23 18:31:25*
%MOMM*%
%LPD*%
G01*
G04 APERTURE LIST*
%ADD10C,0.150000*%
%ADD11C,0.200000*%
%ADD12C,0.120000*%
%ADD13C,0.127000*%
G04 APERTURE END LIST*
D10*
X133802380Y-66833333D02*
X132802380Y-66833333D01*
X133278571Y-66833333D02*
X133278571Y-66261904D01*
X133802380Y-66261904D02*
X132802380Y-66261904D01*
X133707142Y-65214285D02*
X133754761Y-65261904D01*
X133802380Y-65404761D01*
X133802380Y-65500000D01*
X133754761Y-65642857D01*
X133659523Y-65738095D01*
X133564285Y-65785714D01*
X133373809Y-65833333D01*
X133230952Y-65833333D01*
X133040476Y-65785714D01*
X132945238Y-65738095D01*
X132850000Y-65642857D01*
X132802380Y-65500000D01*
X132802380Y-65404761D01*
X132850000Y-65261904D01*
X132897619Y-65214285D01*
X133421428Y-64785714D02*
X133421428Y-64023809D01*
X133754761Y-63595238D02*
X133802380Y-63452380D01*
X133802380Y-63214285D01*
X133754761Y-63119047D01*
X133707142Y-63071428D01*
X133611904Y-63023809D01*
X133516666Y-63023809D01*
X133421428Y-63071428D01*
X133373809Y-63119047D01*
X133326190Y-63214285D01*
X133278571Y-63404761D01*
X133230952Y-63500000D01*
X133183333Y-63547619D01*
X133088095Y-63595238D01*
X132992857Y-63595238D01*
X132897619Y-63547619D01*
X132850000Y-63500000D01*
X132802380Y-63404761D01*
X132802380Y-63166666D01*
X132850000Y-63023809D01*
X133802380Y-62023809D02*
X133326190Y-62357142D01*
X133802380Y-62595238D02*
X132802380Y-62595238D01*
X132802380Y-62214285D01*
X132850000Y-62119047D01*
X132897619Y-62071428D01*
X132992857Y-62023809D01*
X133135714Y-62023809D01*
X133230952Y-62071428D01*
X133278571Y-62119047D01*
X133326190Y-62214285D01*
X133326190Y-62595238D01*
X132802380Y-61404761D02*
X132802380Y-61309523D01*
X132850000Y-61214285D01*
X132897619Y-61166666D01*
X132992857Y-61119047D01*
X133183333Y-61071428D01*
X133421428Y-61071428D01*
X133611904Y-61119047D01*
X133707142Y-61166666D01*
X133754761Y-61214285D01*
X133802380Y-61309523D01*
X133802380Y-61404761D01*
X133754761Y-61500000D01*
X133707142Y-61547619D01*
X133611904Y-61595238D01*
X133421428Y-61642857D01*
X133183333Y-61642857D01*
X132992857Y-61595238D01*
X132897619Y-61547619D01*
X132850000Y-61500000D01*
X132802380Y-61404761D01*
X133135714Y-60214285D02*
X133802380Y-60214285D01*
X132754761Y-60452380D02*
X133469047Y-60690476D01*
X133469047Y-60071428D01*
X149360000Y-86203214D02*
X149312380Y-86298452D01*
X149312380Y-86441309D01*
X149360000Y-86584166D01*
X149455238Y-86679404D01*
X149550476Y-86727023D01*
X149740952Y-86774642D01*
X149883809Y-86774642D01*
X150074285Y-86727023D01*
X150169523Y-86679404D01*
X150264761Y-86584166D01*
X150312380Y-86441309D01*
X150312380Y-86346071D01*
X150264761Y-86203214D01*
X150217142Y-86155595D01*
X149883809Y-86155595D01*
X149883809Y-86346071D01*
X150312380Y-85727023D02*
X149312380Y-85727023D01*
X150312380Y-85155595D01*
X149312380Y-85155595D01*
X150312380Y-84679404D02*
X149312380Y-84679404D01*
X149312380Y-84441309D01*
X149360000Y-84298452D01*
X149455238Y-84203214D01*
X149550476Y-84155595D01*
X149740952Y-84107976D01*
X149883809Y-84107976D01*
X150074285Y-84155595D01*
X150169523Y-84203214D01*
X150264761Y-84298452D01*
X150312380Y-84441309D01*
X150312380Y-84679404D01*
X140898571Y-68200833D02*
X140898571Y-67867500D01*
X141422380Y-67724642D02*
X141422380Y-68200833D01*
X140422380Y-68200833D01*
X140422380Y-67724642D01*
X141374761Y-66867500D02*
X141422380Y-66962738D01*
X141422380Y-67153214D01*
X141374761Y-67248452D01*
X141327142Y-67296071D01*
X141231904Y-67343690D01*
X140946190Y-67343690D01*
X140850952Y-67296071D01*
X140803333Y-67248452D01*
X140755714Y-67153214D01*
X140755714Y-66962738D01*
X140803333Y-66867500D01*
X141422380Y-66438928D02*
X140422380Y-66438928D01*
X141422380Y-66010357D02*
X140898571Y-66010357D01*
X140803333Y-66057976D01*
X140755714Y-66153214D01*
X140755714Y-66296071D01*
X140803333Y-66391309D01*
X140850952Y-66438928D01*
X141422380Y-65391309D02*
X141374761Y-65486547D01*
X141327142Y-65534166D01*
X141231904Y-65581785D01*
X140946190Y-65581785D01*
X140850952Y-65534166D01*
X140803333Y-65486547D01*
X140755714Y-65391309D01*
X140755714Y-65248452D01*
X140803333Y-65153214D01*
X140850952Y-65105595D01*
X140946190Y-65057976D01*
X141231904Y-65057976D01*
X141327142Y-65105595D01*
X141374761Y-65153214D01*
X141422380Y-65248452D01*
X141422380Y-65391309D01*
X152852380Y-85727023D02*
X151852380Y-85727023D01*
X151852380Y-85488928D01*
X151900000Y-85346071D01*
X151995238Y-85250833D01*
X152090476Y-85203214D01*
X152280952Y-85155595D01*
X152423809Y-85155595D01*
X152614285Y-85203214D01*
X152709523Y-85250833D01*
X152804761Y-85346071D01*
X152852380Y-85488928D01*
X152852380Y-85727023D01*
X152947619Y-84060357D02*
X152900000Y-84155595D01*
X152804761Y-84250833D01*
X152661904Y-84393690D01*
X152614285Y-84488928D01*
X152614285Y-84584166D01*
X152852380Y-84536547D02*
X152804761Y-84631785D01*
X152709523Y-84727023D01*
X152519047Y-84774642D01*
X152185714Y-84774642D01*
X151995238Y-84727023D01*
X151900000Y-84631785D01*
X151852380Y-84536547D01*
X151852380Y-84346071D01*
X151900000Y-84250833D01*
X151995238Y-84155595D01*
X152185714Y-84107976D01*
X152519047Y-84107976D01*
X152709523Y-84155595D01*
X152804761Y-84250833D01*
X152852380Y-84346071D01*
X152852380Y-84536547D01*
X154392380Y-86679404D02*
X155392380Y-86346071D01*
X154392380Y-86012738D01*
X155392380Y-85679404D02*
X154392380Y-85679404D01*
X154392380Y-85441309D01*
X154440000Y-85298452D01*
X154535238Y-85203214D01*
X154630476Y-85155595D01*
X154820952Y-85107976D01*
X154963809Y-85107976D01*
X155154285Y-85155595D01*
X155249523Y-85203214D01*
X155344761Y-85298452D01*
X155392380Y-85441309D01*
X155392380Y-85679404D01*
X155392380Y-84679404D02*
X154392380Y-84679404D01*
X154392380Y-84441309D01*
X154440000Y-84298452D01*
X154535238Y-84203214D01*
X154630476Y-84155595D01*
X154820952Y-84107976D01*
X154963809Y-84107976D01*
X155154285Y-84155595D01*
X155249523Y-84203214D01*
X155344761Y-84298452D01*
X155392380Y-84441309D01*
X155392380Y-84679404D01*
X143010000Y-67153214D02*
X142962380Y-67248452D01*
X142962380Y-67391309D01*
X143010000Y-67534166D01*
X143105238Y-67629404D01*
X143200476Y-67677023D01*
X143390952Y-67724642D01*
X143533809Y-67724642D01*
X143724285Y-67677023D01*
X143819523Y-67629404D01*
X143914761Y-67534166D01*
X143962380Y-67391309D01*
X143962380Y-67296071D01*
X143914761Y-67153214D01*
X143867142Y-67105595D01*
X143533809Y-67105595D01*
X143533809Y-67296071D01*
X143962380Y-66677023D02*
X142962380Y-66677023D01*
X143962380Y-66105595D01*
X142962380Y-66105595D01*
X143962380Y-65629404D02*
X142962380Y-65629404D01*
X142962380Y-65391309D01*
X143010000Y-65248452D01*
X143105238Y-65153214D01*
X143200476Y-65105595D01*
X143390952Y-65057976D01*
X143533809Y-65057976D01*
X143724285Y-65105595D01*
X143819523Y-65153214D01*
X143914761Y-65248452D01*
X143962380Y-65391309D01*
X143962380Y-65629404D01*
X137882380Y-67534166D02*
X137882380Y-66962738D01*
X138882380Y-67248452D02*
X137882380Y-67248452D01*
X138882380Y-66629404D02*
X138215714Y-66629404D01*
X138406190Y-66629404D02*
X138310952Y-66581785D01*
X138263333Y-66534166D01*
X138215714Y-66438928D01*
X138215714Y-66343690D01*
X138882380Y-66010357D02*
X138215714Y-66010357D01*
X137882380Y-66010357D02*
X137930000Y-66057976D01*
X137977619Y-66010357D01*
X137930000Y-65962738D01*
X137882380Y-66010357D01*
X137977619Y-66010357D01*
X138215714Y-65105595D02*
X139025238Y-65105595D01*
X139120476Y-65153214D01*
X139168095Y-65200833D01*
X139215714Y-65296071D01*
X139215714Y-65438928D01*
X139168095Y-65534166D01*
X138834761Y-65105595D02*
X138882380Y-65200833D01*
X138882380Y-65391309D01*
X138834761Y-65486547D01*
X138787142Y-65534166D01*
X138691904Y-65581785D01*
X138406190Y-65581785D01*
X138310952Y-65534166D01*
X138263333Y-65486547D01*
X138215714Y-65391309D01*
X138215714Y-65200833D01*
X138263333Y-65105595D01*
D11*
X150811428Y-64327738D02*
X150263809Y-64327738D01*
X150263809Y-63177738D01*
X151687619Y-64327738D02*
X151687619Y-63725357D01*
X151632857Y-63615833D01*
X151523333Y-63561071D01*
X151304285Y-63561071D01*
X151194761Y-63615833D01*
X151687619Y-64272976D02*
X151578095Y-64327738D01*
X151304285Y-64327738D01*
X151194761Y-64272976D01*
X151140000Y-64163452D01*
X151140000Y-64053928D01*
X151194761Y-63944404D01*
X151304285Y-63889642D01*
X151578095Y-63889642D01*
X151687619Y-63834880D01*
X152235238Y-64327738D02*
X152235238Y-63177738D01*
X152344761Y-63889642D02*
X152673333Y-64327738D01*
X152673333Y-63561071D02*
X152235238Y-63999166D01*
X153604285Y-64272976D02*
X153494761Y-64327738D01*
X153275714Y-64327738D01*
X153166190Y-64272976D01*
X153111428Y-64163452D01*
X153111428Y-63725357D01*
X153166190Y-63615833D01*
X153275714Y-63561071D01*
X153494761Y-63561071D01*
X153604285Y-63615833D01*
X153659047Y-63725357D01*
X153659047Y-63834880D01*
X153111428Y-63944404D01*
X154918571Y-63177738D02*
X155192380Y-64327738D01*
X155411428Y-63506309D01*
X155630476Y-64327738D01*
X155904285Y-63177738D01*
X156835238Y-64327738D02*
X156835238Y-63725357D01*
X156780476Y-63615833D01*
X156670952Y-63561071D01*
X156451904Y-63561071D01*
X156342380Y-63615833D01*
X156835238Y-64272976D02*
X156725714Y-64327738D01*
X156451904Y-64327738D01*
X156342380Y-64272976D01*
X156287619Y-64163452D01*
X156287619Y-64053928D01*
X156342380Y-63944404D01*
X156451904Y-63889642D01*
X156725714Y-63889642D01*
X156835238Y-63834880D01*
X157218571Y-63561071D02*
X157656666Y-63561071D01*
X157382857Y-63177738D02*
X157382857Y-64163452D01*
X157437619Y-64272976D01*
X157547142Y-64327738D01*
X157656666Y-64327738D01*
X158478095Y-64272976D02*
X158368571Y-64327738D01*
X158149523Y-64327738D01*
X158040000Y-64272976D01*
X157985238Y-64163452D01*
X157985238Y-63725357D01*
X158040000Y-63615833D01*
X158149523Y-63561071D01*
X158368571Y-63561071D01*
X158478095Y-63615833D01*
X158532857Y-63725357D01*
X158532857Y-63834880D01*
X157985238Y-63944404D01*
X159025714Y-64327738D02*
X159025714Y-63561071D01*
X159025714Y-63780119D02*
X159080476Y-63670595D01*
X159135238Y-63615833D01*
X159244761Y-63561071D01*
X159354285Y-63561071D01*
X150811428Y-66252738D02*
X150263809Y-66252738D01*
X150263809Y-65102738D01*
X151632857Y-66197976D02*
X151523333Y-66252738D01*
X151304285Y-66252738D01*
X151194761Y-66197976D01*
X151140000Y-66088452D01*
X151140000Y-65650357D01*
X151194761Y-65540833D01*
X151304285Y-65486071D01*
X151523333Y-65486071D01*
X151632857Y-65540833D01*
X151687619Y-65650357D01*
X151687619Y-65759880D01*
X151140000Y-65869404D01*
X152070952Y-65486071D02*
X152344761Y-66252738D01*
X152618571Y-65486071D01*
X153494761Y-66197976D02*
X153385238Y-66252738D01*
X153166190Y-66252738D01*
X153056666Y-66197976D01*
X153001904Y-66088452D01*
X153001904Y-65650357D01*
X153056666Y-65540833D01*
X153166190Y-65486071D01*
X153385238Y-65486071D01*
X153494761Y-65540833D01*
X153549523Y-65650357D01*
X153549523Y-65759880D01*
X153001904Y-65869404D01*
X154206666Y-66252738D02*
X154097142Y-66197976D01*
X154042380Y-66088452D01*
X154042380Y-65102738D01*
X155466190Y-65212261D02*
X155520952Y-65157500D01*
X155630476Y-65102738D01*
X155904285Y-65102738D01*
X156013809Y-65157500D01*
X156068571Y-65212261D01*
X156123333Y-65321785D01*
X156123333Y-65431309D01*
X156068571Y-65595595D01*
X155411428Y-66252738D01*
X156123333Y-66252738D01*
X156616190Y-66143214D02*
X156670952Y-66197976D01*
X156616190Y-66252738D01*
X156561428Y-66197976D01*
X156616190Y-66143214D01*
X156616190Y-66252738D01*
X157382857Y-65102738D02*
X157492380Y-65102738D01*
X157601904Y-65157500D01*
X157656666Y-65212261D01*
X157711428Y-65321785D01*
X157766190Y-65540833D01*
X157766190Y-65814642D01*
X157711428Y-66033690D01*
X157656666Y-66143214D01*
X157601904Y-66197976D01*
X157492380Y-66252738D01*
X157382857Y-66252738D01*
X157273333Y-66197976D01*
X157218571Y-66143214D01*
X157163809Y-66033690D01*
X157109047Y-65814642D01*
X157109047Y-65540833D01*
X157163809Y-65321785D01*
X157218571Y-65212261D01*
X157273333Y-65157500D01*
X157382857Y-65102738D01*
D10*
X135342380Y-65962738D02*
X135342380Y-66438928D01*
X135818571Y-66486547D01*
X135770952Y-66438928D01*
X135723333Y-66343690D01*
X135723333Y-66105595D01*
X135770952Y-66010357D01*
X135818571Y-65962738D01*
X135913809Y-65915119D01*
X136151904Y-65915119D01*
X136247142Y-65962738D01*
X136294761Y-66010357D01*
X136342380Y-66105595D01*
X136342380Y-66343690D01*
X136294761Y-66438928D01*
X136247142Y-66486547D01*
X135342380Y-65629404D02*
X136342380Y-65296071D01*
X135342380Y-64962738D01*
%TO.C,U1*%
X144780000Y-116840000D02*
X137160000Y-116840000D01*
X138850000Y-75710000D02*
X127850000Y-75710000D01*
X138850000Y-68580000D02*
X138850000Y-75710000D01*
X127850000Y-75710000D02*
X127850000Y-68580000D01*
X129550000Y-117840000D02*
X129550000Y-112110000D01*
X129550000Y-112110000D02*
X137150000Y-112110000D01*
X137150000Y-112110000D02*
X137150000Y-117840000D01*
X137150000Y-117840000D02*
X129550000Y-117840000D01*
X146050000Y-69850000D02*
X146050000Y-115570000D01*
X120015000Y-69850000D02*
X120015000Y-115570000D01*
X129540000Y-116840000D02*
X121285000Y-116840000D01*
X145306051Y-114300000D02*
G75*
G03*
X145306051Y-114300000I-1796051J0D01*
G01*
X124351051Y-114300000D02*
G75*
G03*
X124351051Y-114300000I-1796051J0D01*
G01*
X124351051Y-71120000D02*
G75*
G03*
X124351051Y-71120000I-1796051J0D01*
G01*
X145306051Y-71120000D02*
G75*
G03*
X145306051Y-71120000I-1796051J0D01*
G01*
X144780000Y-68580000D02*
X120650000Y-68580000D01*
X120015000Y-115570000D02*
G75*
G03*
X121285000Y-116840000I1270000J0D01*
G01*
X144780000Y-116840000D02*
G75*
G03*
X146050000Y-115570000I0J1270000D01*
G01*
X146050000Y-69850000D02*
G75*
G03*
X144780000Y-68580000I-1270000J0D01*
G01*
X121285000Y-68580000D02*
G75*
G03*
X120015000Y-69850000I0J-1270000D01*
G01*
D12*
%TO.C,R1*%
X149860000Y-91110000D02*
X149860000Y-92060000D01*
X149860000Y-96850000D02*
X149860000Y-95900000D01*
X148940000Y-92060000D02*
X148940000Y-95900000D01*
X150780000Y-92060000D02*
X148940000Y-92060000D01*
X150780000Y-95900000D02*
X150780000Y-92060000D01*
X148940000Y-95900000D02*
X150780000Y-95900000D01*
%TO.C,J1*%
X134560000Y-63560000D02*
X134560000Y-62230000D01*
X135890000Y-63560000D02*
X134560000Y-63560000D01*
X137160000Y-63560000D02*
X137160000Y-60900000D01*
X137160000Y-60900000D02*
X147380000Y-60900000D01*
X137160000Y-63560000D02*
X147380000Y-63560000D01*
X147380000Y-63560000D02*
X147380000Y-60900000D01*
D11*
%TO.C,DS18B20*%
X149960000Y-68290000D02*
G75*
G03*
X149960000Y-68290000I-100000J0D01*
G01*
D13*
X159090000Y-83090000D02*
X148870000Y-83090000D01*
X148870000Y-69290000D02*
X159090000Y-69290000D01*
X159090000Y-69290000D02*
X159090000Y-83090000D01*
X148870000Y-71245000D02*
X148870000Y-69290000D01*
X148870000Y-83090000D02*
X148870000Y-78615000D01*
%TO.C,U1*%
D10*
X133223095Y-92162380D02*
X133223095Y-92971904D01*
X133270714Y-93067142D01*
X133318333Y-93114761D01*
X133413571Y-93162380D01*
X133604047Y-93162380D01*
X133699285Y-93114761D01*
X133746904Y-93067142D01*
X133794523Y-92971904D01*
X133794523Y-92162380D01*
X134794523Y-93162380D02*
X134223095Y-93162380D01*
X134508809Y-93162380D02*
X134508809Y-92162380D01*
X134413571Y-92305238D01*
X134318333Y-92400476D01*
X134223095Y-92448095D01*
X141501904Y-75382380D02*
X141501904Y-74382380D01*
X141740000Y-74382380D01*
X141882857Y-74430000D01*
X141978095Y-74525238D01*
X142025714Y-74620476D01*
X142073333Y-74810952D01*
X142073333Y-74953809D01*
X142025714Y-75144285D01*
X141978095Y-75239523D01*
X141882857Y-75334761D01*
X141740000Y-75382380D01*
X141501904Y-75382380D01*
X142692380Y-74382380D02*
X142787619Y-74382380D01*
X142882857Y-74430000D01*
X142930476Y-74477619D01*
X142978095Y-74572857D01*
X143025714Y-74763333D01*
X143025714Y-75001428D01*
X142978095Y-75191904D01*
X142930476Y-75287142D01*
X142882857Y-75334761D01*
X142787619Y-75382380D01*
X142692380Y-75382380D01*
X142597142Y-75334761D01*
X142549523Y-75287142D01*
X142501904Y-75191904D01*
X142454285Y-75001428D01*
X142454285Y-74763333D01*
X142501904Y-74572857D01*
X142549523Y-74477619D01*
X142597142Y-74430000D01*
X142692380Y-74382380D01*
X141501904Y-77922380D02*
X141501904Y-76922380D01*
X141740000Y-76922380D01*
X141882857Y-76970000D01*
X141978095Y-77065238D01*
X142025714Y-77160476D01*
X142073333Y-77350952D01*
X142073333Y-77493809D01*
X142025714Y-77684285D01*
X141978095Y-77779523D01*
X141882857Y-77874761D01*
X141740000Y-77922380D01*
X141501904Y-77922380D01*
X143025714Y-77922380D02*
X142454285Y-77922380D01*
X142740000Y-77922380D02*
X142740000Y-76922380D01*
X142644761Y-77065238D01*
X142549523Y-77160476D01*
X142454285Y-77208095D01*
X141501904Y-80462380D02*
X141501904Y-79462380D01*
X141740000Y-79462380D01*
X141882857Y-79510000D01*
X141978095Y-79605238D01*
X142025714Y-79700476D01*
X142073333Y-79890952D01*
X142073333Y-80033809D01*
X142025714Y-80224285D01*
X141978095Y-80319523D01*
X141882857Y-80414761D01*
X141740000Y-80462380D01*
X141501904Y-80462380D01*
X142454285Y-79557619D02*
X142501904Y-79510000D01*
X142597142Y-79462380D01*
X142835238Y-79462380D01*
X142930476Y-79510000D01*
X142978095Y-79557619D01*
X143025714Y-79652857D01*
X143025714Y-79748095D01*
X142978095Y-79890952D01*
X142406666Y-80462380D01*
X143025714Y-80462380D01*
X141501904Y-83002380D02*
X141501904Y-82002380D01*
X141740000Y-82002380D01*
X141882857Y-82050000D01*
X141978095Y-82145238D01*
X142025714Y-82240476D01*
X142073333Y-82430952D01*
X142073333Y-82573809D01*
X142025714Y-82764285D01*
X141978095Y-82859523D01*
X141882857Y-82954761D01*
X141740000Y-83002380D01*
X141501904Y-83002380D01*
X142406666Y-82002380D02*
X143025714Y-82002380D01*
X142692380Y-82383333D01*
X142835238Y-82383333D01*
X142930476Y-82430952D01*
X142978095Y-82478571D01*
X143025714Y-82573809D01*
X143025714Y-82811904D01*
X142978095Y-82907142D01*
X142930476Y-82954761D01*
X142835238Y-83002380D01*
X142549523Y-83002380D01*
X142454285Y-82954761D01*
X142406666Y-82907142D01*
X141501904Y-85542380D02*
X141501904Y-84542380D01*
X141740000Y-84542380D01*
X141882857Y-84590000D01*
X141978095Y-84685238D01*
X142025714Y-84780476D01*
X142073333Y-84970952D01*
X142073333Y-85113809D01*
X142025714Y-85304285D01*
X141978095Y-85399523D01*
X141882857Y-85494761D01*
X141740000Y-85542380D01*
X141501904Y-85542380D01*
X142930476Y-84875714D02*
X142930476Y-85542380D01*
X142692380Y-84494761D02*
X142454285Y-85209047D01*
X143073333Y-85209047D01*
X141478095Y-87082380D02*
X142097142Y-87082380D01*
X141763809Y-87463333D01*
X141906666Y-87463333D01*
X142001904Y-87510952D01*
X142049523Y-87558571D01*
X142097142Y-87653809D01*
X142097142Y-87891904D01*
X142049523Y-87987142D01*
X142001904Y-88034761D01*
X141906666Y-88082380D01*
X141620952Y-88082380D01*
X141525714Y-88034761D01*
X141478095Y-87987142D01*
X142382857Y-87082380D02*
X142716190Y-88082380D01*
X143049523Y-87082380D01*
X142501904Y-89670000D02*
X142406666Y-89622380D01*
X142263809Y-89622380D01*
X142120952Y-89670000D01*
X142025714Y-89765238D01*
X141978095Y-89860476D01*
X141930476Y-90050952D01*
X141930476Y-90193809D01*
X141978095Y-90384285D01*
X142025714Y-90479523D01*
X142120952Y-90574761D01*
X142263809Y-90622380D01*
X142359047Y-90622380D01*
X142501904Y-90574761D01*
X142549523Y-90527142D01*
X142549523Y-90193809D01*
X142359047Y-90193809D01*
X141501904Y-93162380D02*
X141501904Y-92162380D01*
X141740000Y-92162380D01*
X141882857Y-92210000D01*
X141978095Y-92305238D01*
X142025714Y-92400476D01*
X142073333Y-92590952D01*
X142073333Y-92733809D01*
X142025714Y-92924285D01*
X141978095Y-93019523D01*
X141882857Y-93114761D01*
X141740000Y-93162380D01*
X141501904Y-93162380D01*
X142978095Y-92162380D02*
X142501904Y-92162380D01*
X142454285Y-92638571D01*
X142501904Y-92590952D01*
X142597142Y-92543333D01*
X142835238Y-92543333D01*
X142930476Y-92590952D01*
X142978095Y-92638571D01*
X143025714Y-92733809D01*
X143025714Y-92971904D01*
X142978095Y-93067142D01*
X142930476Y-93114761D01*
X142835238Y-93162380D01*
X142597142Y-93162380D01*
X142501904Y-93114761D01*
X142454285Y-93067142D01*
X141501904Y-95702380D02*
X141501904Y-94702380D01*
X141740000Y-94702380D01*
X141882857Y-94750000D01*
X141978095Y-94845238D01*
X142025714Y-94940476D01*
X142073333Y-95130952D01*
X142073333Y-95273809D01*
X142025714Y-95464285D01*
X141978095Y-95559523D01*
X141882857Y-95654761D01*
X141740000Y-95702380D01*
X141501904Y-95702380D01*
X142930476Y-94702380D02*
X142740000Y-94702380D01*
X142644761Y-94750000D01*
X142597142Y-94797619D01*
X142501904Y-94940476D01*
X142454285Y-95130952D01*
X142454285Y-95511904D01*
X142501904Y-95607142D01*
X142549523Y-95654761D01*
X142644761Y-95702380D01*
X142835238Y-95702380D01*
X142930476Y-95654761D01*
X142978095Y-95607142D01*
X143025714Y-95511904D01*
X143025714Y-95273809D01*
X142978095Y-95178571D01*
X142930476Y-95130952D01*
X142835238Y-95083333D01*
X142644761Y-95083333D01*
X142549523Y-95130952D01*
X142501904Y-95178571D01*
X142454285Y-95273809D01*
X141501904Y-98242380D02*
X141501904Y-97242380D01*
X141740000Y-97242380D01*
X141882857Y-97290000D01*
X141978095Y-97385238D01*
X142025714Y-97480476D01*
X142073333Y-97670952D01*
X142073333Y-97813809D01*
X142025714Y-98004285D01*
X141978095Y-98099523D01*
X141882857Y-98194761D01*
X141740000Y-98242380D01*
X141501904Y-98242380D01*
X142406666Y-97242380D02*
X143073333Y-97242380D01*
X142644761Y-98242380D01*
X141501904Y-100782380D02*
X141501904Y-99782380D01*
X141740000Y-99782380D01*
X141882857Y-99830000D01*
X141978095Y-99925238D01*
X142025714Y-100020476D01*
X142073333Y-100210952D01*
X142073333Y-100353809D01*
X142025714Y-100544285D01*
X141978095Y-100639523D01*
X141882857Y-100734761D01*
X141740000Y-100782380D01*
X141501904Y-100782380D01*
X142644761Y-100210952D02*
X142549523Y-100163333D01*
X142501904Y-100115714D01*
X142454285Y-100020476D01*
X142454285Y-99972857D01*
X142501904Y-99877619D01*
X142549523Y-99830000D01*
X142644761Y-99782380D01*
X142835238Y-99782380D01*
X142930476Y-99830000D01*
X142978095Y-99877619D01*
X143025714Y-99972857D01*
X143025714Y-100020476D01*
X142978095Y-100115714D01*
X142930476Y-100163333D01*
X142835238Y-100210952D01*
X142644761Y-100210952D01*
X142549523Y-100258571D01*
X142501904Y-100306190D01*
X142454285Y-100401428D01*
X142454285Y-100591904D01*
X142501904Y-100687142D01*
X142549523Y-100734761D01*
X142644761Y-100782380D01*
X142835238Y-100782380D01*
X142930476Y-100734761D01*
X142978095Y-100687142D01*
X143025714Y-100591904D01*
X143025714Y-100401428D01*
X142978095Y-100306190D01*
X142930476Y-100258571D01*
X142835238Y-100210952D01*
X142073333Y-103322380D02*
X141740000Y-102846190D01*
X141501904Y-103322380D02*
X141501904Y-102322380D01*
X141882857Y-102322380D01*
X141978095Y-102370000D01*
X142025714Y-102417619D01*
X142073333Y-102512857D01*
X142073333Y-102655714D01*
X142025714Y-102750952D01*
X141978095Y-102798571D01*
X141882857Y-102846190D01*
X141501904Y-102846190D01*
X142406666Y-102322380D02*
X143073333Y-103322380D01*
X143073333Y-102322380D02*
X142406666Y-103322380D01*
X141478095Y-104862380D02*
X142049523Y-104862380D01*
X141763809Y-105862380D02*
X141763809Y-104862380D01*
X142287619Y-104862380D02*
X142954285Y-105862380D01*
X142954285Y-104862380D02*
X142287619Y-105862380D01*
X142501904Y-107450000D02*
X142406666Y-107402380D01*
X142263809Y-107402380D01*
X142120952Y-107450000D01*
X142025714Y-107545238D01*
X141978095Y-107640476D01*
X141930476Y-107830952D01*
X141930476Y-107973809D01*
X141978095Y-108164285D01*
X142025714Y-108259523D01*
X142120952Y-108354761D01*
X142263809Y-108402380D01*
X142359047Y-108402380D01*
X142501904Y-108354761D01*
X142549523Y-108307142D01*
X142549523Y-107973809D01*
X142359047Y-107973809D01*
X141478095Y-109942380D02*
X142097142Y-109942380D01*
X141763809Y-110323333D01*
X141906666Y-110323333D01*
X142001904Y-110370952D01*
X142049523Y-110418571D01*
X142097142Y-110513809D01*
X142097142Y-110751904D01*
X142049523Y-110847142D01*
X142001904Y-110894761D01*
X141906666Y-110942380D01*
X141620952Y-110942380D01*
X141525714Y-110894761D01*
X141478095Y-110847142D01*
X142382857Y-109942380D02*
X142716190Y-110942380D01*
X143049523Y-109942380D01*
X123110714Y-75096666D02*
X123586904Y-75096666D01*
X123015476Y-75382380D02*
X123348809Y-74382380D01*
X123682142Y-75382380D01*
X124205952Y-74382380D02*
X124301190Y-74382380D01*
X124396428Y-74430000D01*
X124444047Y-74477619D01*
X124491666Y-74572857D01*
X124539285Y-74763333D01*
X124539285Y-75001428D01*
X124491666Y-75191904D01*
X124444047Y-75287142D01*
X124396428Y-75334761D01*
X124301190Y-75382380D01*
X124205952Y-75382380D01*
X124110714Y-75334761D01*
X124063095Y-75287142D01*
X124015476Y-75191904D01*
X123967857Y-75001428D01*
X123967857Y-74763333D01*
X124015476Y-74572857D01*
X124063095Y-74477619D01*
X124110714Y-74430000D01*
X124205952Y-74382380D01*
X124086904Y-76970000D02*
X123991666Y-76922380D01*
X123848809Y-76922380D01*
X123705952Y-76970000D01*
X123610714Y-77065238D01*
X123563095Y-77160476D01*
X123515476Y-77350952D01*
X123515476Y-77493809D01*
X123563095Y-77684285D01*
X123610714Y-77779523D01*
X123705952Y-77874761D01*
X123848809Y-77922380D01*
X123944047Y-77922380D01*
X124086904Y-77874761D01*
X124134523Y-77827142D01*
X124134523Y-77493809D01*
X123944047Y-77493809D01*
X122967857Y-79462380D02*
X123301190Y-80462380D01*
X123634523Y-79462380D01*
X123967857Y-79462380D02*
X123967857Y-80271904D01*
X124015476Y-80367142D01*
X124063095Y-80414761D01*
X124158333Y-80462380D01*
X124348809Y-80462380D01*
X124444047Y-80414761D01*
X124491666Y-80367142D01*
X124539285Y-80271904D01*
X124539285Y-79462380D01*
X123063095Y-82954761D02*
X123205952Y-83002380D01*
X123444047Y-83002380D01*
X123539285Y-82954761D01*
X123586904Y-82907142D01*
X123634523Y-82811904D01*
X123634523Y-82716666D01*
X123586904Y-82621428D01*
X123539285Y-82573809D01*
X123444047Y-82526190D01*
X123253571Y-82478571D01*
X123158333Y-82430952D01*
X123110714Y-82383333D01*
X123063095Y-82288095D01*
X123063095Y-82192857D01*
X123110714Y-82097619D01*
X123158333Y-82050000D01*
X123253571Y-82002380D01*
X123491666Y-82002380D01*
X123634523Y-82050000D01*
X123967857Y-82002380D02*
X124586904Y-82002380D01*
X124253571Y-82383333D01*
X124396428Y-82383333D01*
X124491666Y-82430952D01*
X124539285Y-82478571D01*
X124586904Y-82573809D01*
X124586904Y-82811904D01*
X124539285Y-82907142D01*
X124491666Y-82954761D01*
X124396428Y-83002380D01*
X124110714Y-83002380D01*
X124015476Y-82954761D01*
X123967857Y-82907142D01*
X123063095Y-85494761D02*
X123205952Y-85542380D01*
X123444047Y-85542380D01*
X123539285Y-85494761D01*
X123586904Y-85447142D01*
X123634523Y-85351904D01*
X123634523Y-85256666D01*
X123586904Y-85161428D01*
X123539285Y-85113809D01*
X123444047Y-85066190D01*
X123253571Y-85018571D01*
X123158333Y-84970952D01*
X123110714Y-84923333D01*
X123063095Y-84828095D01*
X123063095Y-84732857D01*
X123110714Y-84637619D01*
X123158333Y-84590000D01*
X123253571Y-84542380D01*
X123491666Y-84542380D01*
X123634523Y-84590000D01*
X124015476Y-84637619D02*
X124063095Y-84590000D01*
X124158333Y-84542380D01*
X124396428Y-84542380D01*
X124491666Y-84590000D01*
X124539285Y-84637619D01*
X124586904Y-84732857D01*
X124586904Y-84828095D01*
X124539285Y-84970952D01*
X123967857Y-85542380D01*
X124586904Y-85542380D01*
X123063095Y-88034761D02*
X123205952Y-88082380D01*
X123444047Y-88082380D01*
X123539285Y-88034761D01*
X123586904Y-87987142D01*
X123634523Y-87891904D01*
X123634523Y-87796666D01*
X123586904Y-87701428D01*
X123539285Y-87653809D01*
X123444047Y-87606190D01*
X123253571Y-87558571D01*
X123158333Y-87510952D01*
X123110714Y-87463333D01*
X123063095Y-87368095D01*
X123063095Y-87272857D01*
X123110714Y-87177619D01*
X123158333Y-87130000D01*
X123253571Y-87082380D01*
X123491666Y-87082380D01*
X123634523Y-87130000D01*
X124586904Y-88082380D02*
X124015476Y-88082380D01*
X124301190Y-88082380D02*
X124301190Y-87082380D01*
X124205952Y-87225238D01*
X124110714Y-87320476D01*
X124015476Y-87368095D01*
X123039285Y-90574761D02*
X123182142Y-90622380D01*
X123420238Y-90622380D01*
X123515476Y-90574761D01*
X123563095Y-90527142D01*
X123610714Y-90431904D01*
X123610714Y-90336666D01*
X123563095Y-90241428D01*
X123515476Y-90193809D01*
X123420238Y-90146190D01*
X123229761Y-90098571D01*
X123134523Y-90050952D01*
X123086904Y-90003333D01*
X123039285Y-89908095D01*
X123039285Y-89812857D01*
X123086904Y-89717619D01*
X123134523Y-89670000D01*
X123229761Y-89622380D01*
X123467857Y-89622380D01*
X123610714Y-89670000D01*
X124610714Y-90527142D02*
X124563095Y-90574761D01*
X124420238Y-90622380D01*
X124325000Y-90622380D01*
X124182142Y-90574761D01*
X124086904Y-90479523D01*
X124039285Y-90384285D01*
X123991666Y-90193809D01*
X123991666Y-90050952D01*
X124039285Y-89860476D01*
X124086904Y-89765238D01*
X124182142Y-89670000D01*
X124325000Y-89622380D01*
X124420238Y-89622380D01*
X124563095Y-89670000D01*
X124610714Y-89717619D01*
X123015476Y-93114761D02*
X123158333Y-93162380D01*
X123396428Y-93162380D01*
X123491666Y-93114761D01*
X123539285Y-93067142D01*
X123586904Y-92971904D01*
X123586904Y-92876666D01*
X123539285Y-92781428D01*
X123491666Y-92733809D01*
X123396428Y-92686190D01*
X123205952Y-92638571D01*
X123110714Y-92590952D01*
X123063095Y-92543333D01*
X123015476Y-92448095D01*
X123015476Y-92352857D01*
X123063095Y-92257619D01*
X123110714Y-92210000D01*
X123205952Y-92162380D01*
X123444047Y-92162380D01*
X123586904Y-92210000D01*
X124205952Y-92162380D02*
X124396428Y-92162380D01*
X124491666Y-92210000D01*
X124586904Y-92305238D01*
X124634523Y-92495714D01*
X124634523Y-92829047D01*
X124586904Y-93019523D01*
X124491666Y-93114761D01*
X124396428Y-93162380D01*
X124205952Y-93162380D01*
X124110714Y-93114761D01*
X124015476Y-93019523D01*
X123967857Y-92829047D01*
X123967857Y-92495714D01*
X124015476Y-92305238D01*
X124110714Y-92210000D01*
X124205952Y-92162380D01*
X123039285Y-95654761D02*
X123182142Y-95702380D01*
X123420238Y-95702380D01*
X123515476Y-95654761D01*
X123563095Y-95607142D01*
X123610714Y-95511904D01*
X123610714Y-95416666D01*
X123563095Y-95321428D01*
X123515476Y-95273809D01*
X123420238Y-95226190D01*
X123229761Y-95178571D01*
X123134523Y-95130952D01*
X123086904Y-95083333D01*
X123039285Y-94988095D01*
X123039285Y-94892857D01*
X123086904Y-94797619D01*
X123134523Y-94750000D01*
X123229761Y-94702380D01*
X123467857Y-94702380D01*
X123610714Y-94750000D01*
X124039285Y-95702380D02*
X124039285Y-94702380D01*
X124610714Y-95702380D02*
X124182142Y-95130952D01*
X124610714Y-94702380D02*
X124039285Y-95273809D01*
X124086904Y-97290000D02*
X123991666Y-97242380D01*
X123848809Y-97242380D01*
X123705952Y-97290000D01*
X123610714Y-97385238D01*
X123563095Y-97480476D01*
X123515476Y-97670952D01*
X123515476Y-97813809D01*
X123563095Y-98004285D01*
X123610714Y-98099523D01*
X123705952Y-98194761D01*
X123848809Y-98242380D01*
X123944047Y-98242380D01*
X124086904Y-98194761D01*
X124134523Y-98147142D01*
X124134523Y-97813809D01*
X123944047Y-97813809D01*
X123063095Y-99782380D02*
X123682142Y-99782380D01*
X123348809Y-100163333D01*
X123491666Y-100163333D01*
X123586904Y-100210952D01*
X123634523Y-100258571D01*
X123682142Y-100353809D01*
X123682142Y-100591904D01*
X123634523Y-100687142D01*
X123586904Y-100734761D01*
X123491666Y-100782380D01*
X123205952Y-100782380D01*
X123110714Y-100734761D01*
X123063095Y-100687142D01*
X123967857Y-99782380D02*
X124301190Y-100782380D01*
X124634523Y-99782380D01*
X123086904Y-102798571D02*
X123420238Y-102798571D01*
X123563095Y-103322380D02*
X123086904Y-103322380D01*
X123086904Y-102322380D01*
X123563095Y-102322380D01*
X123991666Y-103322380D02*
X123991666Y-102322380D01*
X124563095Y-103322380D01*
X124563095Y-102322380D01*
X123277380Y-105862380D02*
X122944047Y-105386190D01*
X122705952Y-105862380D02*
X122705952Y-104862380D01*
X123086904Y-104862380D01*
X123182142Y-104910000D01*
X123229761Y-104957619D01*
X123277380Y-105052857D01*
X123277380Y-105195714D01*
X123229761Y-105290952D01*
X123182142Y-105338571D01*
X123086904Y-105386190D01*
X122705952Y-105386190D01*
X123658333Y-105814761D02*
X123801190Y-105862380D01*
X124039285Y-105862380D01*
X124134523Y-105814761D01*
X124182142Y-105767142D01*
X124229761Y-105671904D01*
X124229761Y-105576666D01*
X124182142Y-105481428D01*
X124134523Y-105433809D01*
X124039285Y-105386190D01*
X123848809Y-105338571D01*
X123753571Y-105290952D01*
X123705952Y-105243333D01*
X123658333Y-105148095D01*
X123658333Y-105052857D01*
X123705952Y-104957619D01*
X123753571Y-104910000D01*
X123848809Y-104862380D01*
X124086904Y-104862380D01*
X124229761Y-104910000D01*
X124515476Y-104862380D02*
X125086904Y-104862380D01*
X124801190Y-105862380D02*
X124801190Y-104862380D01*
X124086904Y-107450000D02*
X123991666Y-107402380D01*
X123848809Y-107402380D01*
X123705952Y-107450000D01*
X123610714Y-107545238D01*
X123563095Y-107640476D01*
X123515476Y-107830952D01*
X123515476Y-107973809D01*
X123563095Y-108164285D01*
X123610714Y-108259523D01*
X123705952Y-108354761D01*
X123848809Y-108402380D01*
X123944047Y-108402380D01*
X124086904Y-108354761D01*
X124134523Y-108307142D01*
X124134523Y-107973809D01*
X123944047Y-107973809D01*
X122729761Y-109942380D02*
X123063095Y-110942380D01*
X123396428Y-109942380D01*
X123729761Y-110942380D02*
X123729761Y-109942380D01*
X124205952Y-110942380D02*
X124205952Y-109942380D01*
X124777380Y-110942380D01*
X124777380Y-109942380D01*
X129897619Y-72842380D02*
X129564285Y-72366190D01*
X129326190Y-72842380D02*
X129326190Y-71842380D01*
X129707142Y-71842380D01*
X129802380Y-71890000D01*
X129850000Y-71937619D01*
X129897619Y-72032857D01*
X129897619Y-72175714D01*
X129850000Y-72270952D01*
X129802380Y-72318571D01*
X129707142Y-72366190D01*
X129326190Y-72366190D01*
X130659523Y-72318571D02*
X130326190Y-72318571D01*
X130326190Y-72842380D02*
X130326190Y-71842380D01*
X130802380Y-71842380D01*
X131897619Y-72556666D02*
X132373809Y-72556666D01*
X131802380Y-72842380D02*
X132135714Y-71842380D01*
X132469047Y-72842380D01*
X132802380Y-72175714D02*
X132802380Y-72842380D01*
X132802380Y-72270952D02*
X132850000Y-72223333D01*
X132945238Y-72175714D01*
X133088095Y-72175714D01*
X133183333Y-72223333D01*
X133230952Y-72318571D01*
X133230952Y-72842380D01*
X133564285Y-72175714D02*
X133945238Y-72175714D01*
X133707142Y-71842380D02*
X133707142Y-72699523D01*
X133754761Y-72794761D01*
X133850000Y-72842380D01*
X133945238Y-72842380D01*
X134659523Y-72794761D02*
X134564285Y-72842380D01*
X134373809Y-72842380D01*
X134278571Y-72794761D01*
X134230952Y-72699523D01*
X134230952Y-72318571D01*
X134278571Y-72223333D01*
X134373809Y-72175714D01*
X134564285Y-72175714D01*
X134659523Y-72223333D01*
X134707142Y-72318571D01*
X134707142Y-72413809D01*
X134230952Y-72509047D01*
X135135714Y-72175714D02*
X135135714Y-72842380D01*
X135135714Y-72270952D02*
X135183333Y-72223333D01*
X135278571Y-72175714D01*
X135421428Y-72175714D01*
X135516666Y-72223333D01*
X135564285Y-72318571D01*
X135564285Y-72842380D01*
X136040476Y-72175714D02*
X136040476Y-72842380D01*
X136040476Y-72270952D02*
X136088095Y-72223333D01*
X136183333Y-72175714D01*
X136326190Y-72175714D01*
X136421428Y-72223333D01*
X136469047Y-72318571D01*
X136469047Y-72842380D01*
X137373809Y-72842380D02*
X137373809Y-72318571D01*
X137326190Y-72223333D01*
X137230952Y-72175714D01*
X137040476Y-72175714D01*
X136945238Y-72223333D01*
X137373809Y-72794761D02*
X137278571Y-72842380D01*
X137040476Y-72842380D01*
X136945238Y-72794761D01*
X136897619Y-72699523D01*
X136897619Y-72604285D01*
X136945238Y-72509047D01*
X137040476Y-72461428D01*
X137278571Y-72461428D01*
X137373809Y-72413809D01*
X132088095Y-115022380D02*
X132088095Y-115831904D01*
X132135714Y-115927142D01*
X132183333Y-115974761D01*
X132278571Y-116022380D01*
X132469047Y-116022380D01*
X132564285Y-115974761D01*
X132611904Y-115927142D01*
X132659523Y-115831904D01*
X132659523Y-115022380D01*
X133088095Y-115974761D02*
X133230952Y-116022380D01*
X133469047Y-116022380D01*
X133564285Y-115974761D01*
X133611904Y-115927142D01*
X133659523Y-115831904D01*
X133659523Y-115736666D01*
X133611904Y-115641428D01*
X133564285Y-115593809D01*
X133469047Y-115546190D01*
X133278571Y-115498571D01*
X133183333Y-115450952D01*
X133135714Y-115403333D01*
X133088095Y-115308095D01*
X133088095Y-115212857D01*
X133135714Y-115117619D01*
X133183333Y-115070000D01*
X133278571Y-115022380D01*
X133516666Y-115022380D01*
X133659523Y-115070000D01*
X134421428Y-115498571D02*
X134564285Y-115546190D01*
X134611904Y-115593809D01*
X134659523Y-115689047D01*
X134659523Y-115831904D01*
X134611904Y-115927142D01*
X134564285Y-115974761D01*
X134469047Y-116022380D01*
X134088095Y-116022380D01*
X134088095Y-115022380D01*
X134421428Y-115022380D01*
X134516666Y-115070000D01*
X134564285Y-115117619D01*
X134611904Y-115212857D01*
X134611904Y-115308095D01*
X134564285Y-115403333D01*
X134516666Y-115450952D01*
X134421428Y-115498571D01*
X134088095Y-115498571D01*
%TO.C,R1*%
X148392380Y-94146666D02*
X147916190Y-94480000D01*
X148392380Y-94718095D02*
X147392380Y-94718095D01*
X147392380Y-94337142D01*
X147440000Y-94241904D01*
X147487619Y-94194285D01*
X147582857Y-94146666D01*
X147725714Y-94146666D01*
X147820952Y-94194285D01*
X147868571Y-94241904D01*
X147916190Y-94337142D01*
X147916190Y-94718095D01*
X148392380Y-93194285D02*
X148392380Y-93765714D01*
X148392380Y-93480000D02*
X147392380Y-93480000D01*
X147535238Y-93575238D01*
X147630476Y-93670476D01*
X147678095Y-93765714D01*
X151565714Y-94908571D02*
X152232380Y-94908571D01*
X151184761Y-95146666D02*
X151899047Y-95384761D01*
X151899047Y-94765714D01*
X152137142Y-94384761D02*
X152184761Y-94337142D01*
X152232380Y-94384761D01*
X152184761Y-94432380D01*
X152137142Y-94384761D01*
X152232380Y-94384761D01*
X151232380Y-94003809D02*
X151232380Y-93337142D01*
X152232380Y-93765714D01*
X152232380Y-92956190D02*
X151232380Y-92956190D01*
X151851428Y-92860952D02*
X152232380Y-92575238D01*
X151565714Y-92575238D02*
X151946666Y-92956190D01*
%TO.C,J1*%
X148042380Y-62563333D02*
X148756666Y-62563333D01*
X148899523Y-62610952D01*
X148994761Y-62706190D01*
X149042380Y-62849047D01*
X149042380Y-62944285D01*
X149042380Y-61563333D02*
X149042380Y-62134761D01*
X149042380Y-61849047D02*
X148042380Y-61849047D01*
X148185238Y-61944285D01*
X148280476Y-62039523D01*
X148328095Y-62134761D01*
%TO.C,DS18B20*%
X147772380Y-78072857D02*
X146772380Y-78072857D01*
X146772380Y-77834761D01*
X146820000Y-77691904D01*
X146915238Y-77596666D01*
X147010476Y-77549047D01*
X147200952Y-77501428D01*
X147343809Y-77501428D01*
X147534285Y-77549047D01*
X147629523Y-77596666D01*
X147724761Y-77691904D01*
X147772380Y-77834761D01*
X147772380Y-78072857D01*
X147724761Y-77120476D02*
X147772380Y-76977619D01*
X147772380Y-76739523D01*
X147724761Y-76644285D01*
X147677142Y-76596666D01*
X147581904Y-76549047D01*
X147486666Y-76549047D01*
X147391428Y-76596666D01*
X147343809Y-76644285D01*
X147296190Y-76739523D01*
X147248571Y-76930000D01*
X147200952Y-77025238D01*
X147153333Y-77072857D01*
X147058095Y-77120476D01*
X146962857Y-77120476D01*
X146867619Y-77072857D01*
X146820000Y-77025238D01*
X146772380Y-76930000D01*
X146772380Y-76691904D01*
X146820000Y-76549047D01*
X147772380Y-75596666D02*
X147772380Y-76168095D01*
X147772380Y-75882380D02*
X146772380Y-75882380D01*
X146915238Y-75977619D01*
X147010476Y-76072857D01*
X147058095Y-76168095D01*
X147200952Y-75025238D02*
X147153333Y-75120476D01*
X147105714Y-75168095D01*
X147010476Y-75215714D01*
X146962857Y-75215714D01*
X146867619Y-75168095D01*
X146820000Y-75120476D01*
X146772380Y-75025238D01*
X146772380Y-74834761D01*
X146820000Y-74739523D01*
X146867619Y-74691904D01*
X146962857Y-74644285D01*
X147010476Y-74644285D01*
X147105714Y-74691904D01*
X147153333Y-74739523D01*
X147200952Y-74834761D01*
X147200952Y-75025238D01*
X147248571Y-75120476D01*
X147296190Y-75168095D01*
X147391428Y-75215714D01*
X147581904Y-75215714D01*
X147677142Y-75168095D01*
X147724761Y-75120476D01*
X147772380Y-75025238D01*
X147772380Y-74834761D01*
X147724761Y-74739523D01*
X147677142Y-74691904D01*
X147581904Y-74644285D01*
X147391428Y-74644285D01*
X147296190Y-74691904D01*
X147248571Y-74739523D01*
X147200952Y-74834761D01*
X147248571Y-73882380D02*
X147296190Y-73739523D01*
X147343809Y-73691904D01*
X147439047Y-73644285D01*
X147581904Y-73644285D01*
X147677142Y-73691904D01*
X147724761Y-73739523D01*
X147772380Y-73834761D01*
X147772380Y-74215714D01*
X146772380Y-74215714D01*
X146772380Y-73882380D01*
X146820000Y-73787142D01*
X146867619Y-73739523D01*
X146962857Y-73691904D01*
X147058095Y-73691904D01*
X147153333Y-73739523D01*
X147200952Y-73787142D01*
X147248571Y-73882380D01*
X147248571Y-74215714D01*
X146867619Y-73263333D02*
X146820000Y-73215714D01*
X146772380Y-73120476D01*
X146772380Y-72882380D01*
X146820000Y-72787142D01*
X146867619Y-72739523D01*
X146962857Y-72691904D01*
X147058095Y-72691904D01*
X147200952Y-72739523D01*
X147772380Y-73310952D01*
X147772380Y-72691904D01*
X146772380Y-72072857D02*
X146772380Y-71977619D01*
X146820000Y-71882380D01*
X146867619Y-71834761D01*
X146962857Y-71787142D01*
X147153333Y-71739523D01*
X147391428Y-71739523D01*
X147581904Y-71787142D01*
X147677142Y-71834761D01*
X147724761Y-71882380D01*
X147772380Y-71977619D01*
X147772380Y-72072857D01*
X147724761Y-72168095D01*
X147677142Y-72215714D01*
X147581904Y-72263333D01*
X147391428Y-72310952D01*
X147153333Y-72310952D01*
X146962857Y-72263333D01*
X146867619Y-72215714D01*
X146820000Y-72168095D01*
X146772380Y-72072857D01*
%TD*%
M02*
